<svg width="2500" height="2321" viewBox="0 0 2500 2321" fill="none" xmlns="http://www.w3.org/2000/svg">
<g clip-path="url(#clip0_310_6)">
<path d="M711.818 913.324C691.717 898.299 671.563 890.787 651.462 890.787H561.109V1432.03H651.514C671.615 1432.03 691.768 1424.51 711.87 1409.49C731.971 1394.47 742.022 1371.93 742.022 1341.83V980.985C741.97 950.937 731.868 928.348 711.818 913.324V913.324ZM2183.06 -6.10352e-05H316.937C191.562 -6.10352e-05 89.8108 101.492 89.5 226.919V2094.08C89.8108 2219.51 191.562 2321 316.937 2321H2183.06C2308.49 2321 2410.19 2219.51 2410.5 2094.08V226.919C2410.19 101.492 2308.44 -6.10352e-05 2183.06 -6.10352e-05V-6.10352e-05ZM888.38 1342.81C888.38 1440.26 828.231 1587.92 637.836 1587.61H397.447V730.39H642.913C826.521 730.39 888.276 877.835 888.328 975.338L888.38 1342.81ZM1409.98 883.482H1133.95V1082.53H1302.69V1235.73H1133.95V1434.72H1410.04V1587.92H1087.89C1030.07 1589.42 981.997 1543.72 980.546 1485.91V837.736C979.148 779.97 1024.89 731.996 1082.66 730.545H1410.04L1409.98 883.482ZM1946.92 1480.78C1878.54 1640.09 1756.01 1608.38 1701.14 1480.78L1501.53 730.597H1670.27L1824.19 1319.76L1977.38 730.597H2146.18L1946.92 1480.78Z" fill="#242424"/>
</g>
<defs>
<clipPath id="clip0_310_6">
<rect width="2500" height="2321" fill="white"/>
</clipPath>
</defs>
</svg>
