<svg width="120" height="69" viewBox="0 0 120 69" fill="none" xmlns="http://www.w3.org/2000/svg">
<rect width="120" height="69" rx="9" fill="#232323"/>
<path d="M39.4048 18.9531C40.2142 18.9531 41.0017 19.1172 41.7673 19.4453C42.5439 19.7625 43.233 20.1672 43.8345 20.6594C44.447 21.1406 44.9009 21.6383 45.1962 22.1523L45.3767 20.5773C45.3767 20.1289 45.508 19.7461 45.7705 19.4289C46.033 19.1008 46.3884 18.9367 46.8369 18.9367C47.2853 18.9367 47.6681 19.1008 47.9853 19.4289C48.3134 19.7461 48.4775 20.1289 48.4775 20.5773V20.6102L48.4447 35.8023C48.4447 36.2508 48.2806 36.6391 47.9525 36.9672C47.6353 37.2844 47.2525 37.443 46.8041 37.443C46.3556 37.443 46.0002 37.2844 45.7377 36.9672C45.4752 36.6391 45.3439 36.2508 45.3439 35.8023L45.1634 34.4898C44.5947 35.4633 43.7634 36.1906 42.6697 36.6719C41.5759 37.1422 40.4767 37.3773 39.372 37.3773C38.1361 37.3773 36.9767 37.1367 35.8939 36.6555C34.8111 36.1633 33.8595 35.4906 33.0392 34.6375C32.2189 33.7844 31.5736 32.8055 31.1033 31.7008C30.6439 30.5961 30.4142 29.4313 30.4142 28.2063C30.4142 26.9922 30.6384 25.8328 31.0869 24.7281C31.5463 23.6125 32.1806 22.6227 32.99 21.7586C33.8103 20.8836 34.7619 20.2 35.8447 19.7078C36.9384 19.2047 38.1252 18.9531 39.4048 18.9531ZM45.065 28.1734C45.065 27.1016 44.8134 26.1172 44.3103 25.2203C43.8181 24.3234 43.1455 23.6016 42.2923 23.0547C41.4392 22.5078 40.4658 22.2344 39.372 22.2344C38.3002 22.2344 37.3322 22.5078 36.4681 23.0547C35.6041 23.6016 34.9205 24.3289 34.4173 25.2367C33.9142 26.1336 33.6627 27.107 33.6627 28.157C33.6627 29.218 33.9197 30.2023 34.4337 31.1102C34.9478 32.007 35.6369 32.7289 36.5009 33.2758C37.3759 33.8227 38.3384 34.0961 39.3884 34.0961C40.4384 34.0961 41.39 33.8227 42.2431 33.2758C43.1072 32.7289 43.7908 32.007 44.2939 31.1102C44.808 30.2023 45.065 29.2234 45.065 28.1734ZM57.7437 19.0188C58.8047 19.0188 59.7344 19.2758 60.5328 19.7898C61.3422 20.3039 62.0039 20.9273 62.518 21.6602C63.1305 20.9492 63.8687 20.3313 64.7328 19.8063C65.5969 19.2703 66.5594 19.0023 67.6203 19.0023C69.0203 19.0023 70.1797 19.3797 71.0984 20.1344C72.0281 20.8781 72.7172 21.857 73.1656 23.0711C73.6141 24.2852 73.8383 25.5977 73.8383 27.0086L73.8547 35.7531C73.8547 36.1906 73.6961 36.568 73.3789 36.8852C73.0617 37.2023 72.6734 37.3609 72.2141 37.3609C71.7547 37.3609 71.3664 37.2023 71.0492 36.8852C70.732 36.568 70.5734 36.1906 70.5734 35.7531L70.557 27.0414C70.557 26.2102 70.4805 25.4336 70.3273 24.7117C70.1742 23.9789 69.8953 23.3883 69.4906 22.9398C69.0859 22.4914 68.5008 22.2672 67.7352 22.2672C66.9258 22.2672 66.2312 22.4914 65.6516 22.9398C65.0828 23.3883 64.6453 23.9789 64.3391 24.7117C64.0437 25.4336 63.8961 26.2156 63.8961 27.0578L63.9125 35.8023C63.9125 36.2398 63.7484 36.6172 63.4203 36.9344C63.1031 37.2406 62.7203 37.3937 62.2719 37.3937C61.8125 37.3937 61.4242 37.2352 61.107 36.918C60.7898 36.6008 60.6312 36.2234 60.6312 35.7859V27.0742C60.6312 26.0461 60.4562 25.1766 60.1062 24.4656C59.7672 23.7547 59.3242 23.2188 58.7773 22.8578C58.2414 22.4859 57.6891 22.3 57.1203 22.3C56.3109 22.3 55.5836 22.6773 54.9383 23.432C54.293 24.1867 53.9703 25.3625 53.9703 26.9594V35.8023C53.9703 36.2398 53.8062 36.6172 53.4781 36.9344C53.1609 37.2406 52.7781 37.3937 52.3297 37.3937C51.8812 37.3937 51.493 37.2352 51.1648 36.918C50.8477 36.6008 50.6891 36.2234 50.6891 35.7859V20.6102C50.6891 20.1617 50.7711 19.7844 50.9352 19.4781C51.1102 19.1609 51.4273 19.0023 51.8867 19.0023C52.2477 19.0023 52.5812 19.1172 52.8875 19.3469C53.1937 19.5766 53.4398 19.9594 53.6258 20.4953L53.9375 21.3977C54.2875 20.6758 54.8234 20.1016 55.5453 19.675C56.2781 19.2375 57.0109 19.0188 57.7437 19.0188ZM89.8475 19.0352C90.2412 19.0352 90.5967 19.1938 90.9139 19.5109C91.242 19.8281 91.4061 20.1781 91.4061 20.5609C91.4061 20.9 91.3514 21.1789 91.242 21.3977L84.3186 36.3766C84.0233 37 83.5202 37.3117 82.8092 37.3117C82.0764 37.3117 81.5842 36.9781 81.3327 36.3109L75.1311 21.332C75.0436 21.1461 74.9998 20.8891 74.9998 20.5609C74.9998 20.2109 75.1475 19.8719 75.4428 19.5438C75.7491 19.2047 76.0881 19.0352 76.46 19.0352C77.3131 19.0352 77.8819 19.3742 78.1662 20.0523L82.9405 31.668L88.2725 19.9867C88.5678 19.3523 89.0928 19.0352 89.8475 19.0352ZM30.5746 42.7211C30.5746 42.5716 30.6274 42.444 30.7332 42.3383C30.8425 42.2289 30.972 42.1742 31.1214 42.1742H31.1269L36.5902 42.1414H36.6011C36.7506 42.1414 36.8782 42.1961 36.9839 42.3055C37.0933 42.4112 37.148 42.5388 37.148 42.6883C37.148 42.8378 37.0933 42.9672 36.9839 43.0766C36.8782 43.1823 36.7506 43.2352 36.6011 43.2352H36.5957L34.4191 43.2461L34.3918 49.5242V49.5297C34.3918 49.6755 34.3371 49.8013 34.2277 49.907C34.122 50.0128 33.9944 50.0656 33.8449 50.0656C33.6954 50.0656 33.566 50.0128 33.4566 49.907C33.3509 49.8013 33.298 49.6755 33.298 49.5297V49.5188L33.3253 43.2516L31.1269 43.268H31.1214C30.972 43.268 30.8425 43.2151 30.7332 43.1094C30.6274 43 30.5746 42.8706 30.5746 42.7211ZM38.3669 42.5133C38.3669 42.3711 38.4252 42.2563 38.5419 42.1688C38.6585 42.0813 38.7716 42.0375 38.8809 42.0375C39.0341 42.0411 39.169 42.0904 39.2856 42.1852C39.4023 42.2799 39.4606 42.4076 39.4606 42.568L39.4661 45.6414L43.5567 45.6359L43.5622 42.568C43.5513 42.4221 43.6005 42.2982 43.7098 42.1961C43.8229 42.0904 43.9541 42.0375 44.1036 42.0375C44.2531 42.0375 44.3825 42.0885 44.4919 42.1906C44.6013 42.2927 44.6559 42.4185 44.6559 42.568L44.6505 49.5188C44.6505 49.6646 44.5958 49.7904 44.4864 49.8961C44.3807 49.9982 44.2531 50.0492 44.1036 50.0492C43.9541 50.0492 43.8247 50 43.7153 49.9016C43.6096 49.7995 43.5567 49.6755 43.5567 49.5297V46.7406L39.4716 46.7461L39.477 49.5352C39.477 49.6846 39.4242 49.8104 39.3184 49.9125C39.2127 50.0146 39.0833 50.0656 38.9302 50.0656C38.7807 50.0656 38.6513 50.0146 38.5419 49.9125C38.4361 49.8068 38.3833 49.681 38.3833 49.5352C38.3796 48.3758 38.376 47.2164 38.3723 46.057C38.3723 44.894 38.3705 43.7328 38.3669 42.5734V42.5133ZM46.1483 42.6938C46.1483 42.5479 46.2011 42.424 46.3068 42.3219C46.4162 42.2161 46.5456 42.1633 46.6951 42.1633L51.3818 42.1688H51.3873C51.5368 42.1688 51.6644 42.2234 51.7701 42.3328C51.8795 42.4385 51.9342 42.5661 51.9342 42.7156C51.9342 42.8651 51.8795 42.9945 51.7701 43.1039C51.6644 43.2096 51.5368 43.2625 51.3873 43.2625H51.3818L47.242 43.257L47.2475 45.4992L50.9334 45.5266C51.0902 45.5266 51.2196 45.5813 51.3217 45.6906C51.4274 45.8 51.4803 45.9404 51.4803 46.1117C51.4803 46.2576 51.4238 46.3815 51.3108 46.4836C51.1977 46.582 51.0719 46.6313 50.9334 46.6313H50.9279L47.2529 46.6039L47.2584 48.9172L51.3818 48.9117H51.3873C51.5368 48.9117 51.6644 48.9664 51.7701 49.0758C51.8795 49.1815 51.9342 49.3091 51.9342 49.4586C51.9342 49.6081 51.8795 49.7375 51.7701 49.8469C51.6644 49.9526 51.5368 50.0055 51.3873 50.0055H51.3818L46.7115 50.0109C46.5621 50.0109 46.4326 49.9581 46.3233 49.8523C46.2175 49.743 46.1647 49.6154 46.1647 49.4695L46.1483 42.6938ZM56.2101 42.3711C56.2502 42.2799 56.3176 42.2034 56.4124 42.1414C56.5109 42.0758 56.6111 42.043 56.7132 42.043C56.8117 42.043 56.9101 42.0758 57.0085 42.1414C57.1106 42.2034 57.1799 42.2799 57.2163 42.3711L60.2242 49.3492C60.257 49.4221 60.2734 49.4969 60.2734 49.5734C60.2734 49.7229 60.2187 49.8523 60.1093 49.9617C60.0036 50.0674 59.876 50.1203 59.7265 50.1203C59.6244 50.1203 59.5242 50.0875 59.4257 50.0219C59.3273 49.9563 59.258 49.8779 59.2179 49.7867L58.2828 47.6156L55.1656 47.5719L54.2085 49.7922C54.1721 49.8833 54.1046 49.9617 54.0062 50.0273C53.9078 50.0966 53.8075 50.1312 53.7054 50.1312C53.5559 50.1312 53.4265 50.0784 53.3171 49.9727C53.2114 49.8633 53.1585 49.7339 53.1585 49.5844C53.1585 49.5078 53.1749 49.4331 53.2078 49.3602L56.2101 42.3711ZM56.7132 43.9734L55.6359 46.4836L57.807 46.5109L56.7132 43.9734ZM61.3501 42.7211C61.3501 42.5716 61.4029 42.444 61.5087 42.3383C61.618 42.2289 61.7475 42.1742 61.8969 42.1742H61.9024L67.3657 42.1414H67.3766C67.5261 42.1414 67.6537 42.1961 67.7594 42.3055C67.8688 42.4112 67.9235 42.5388 67.9235 42.6883C67.9235 42.8378 67.8688 42.9672 67.7594 43.0766C67.6537 43.1823 67.5261 43.2352 67.3766 43.2352H67.3712L65.1946 43.2461L65.1673 49.5242V49.5297C65.1673 49.6755 65.1126 49.8013 65.0032 49.907C64.8975 50.0128 64.7699 50.0656 64.6204 50.0656C64.4709 50.0656 64.3415 50.0128 64.2321 49.907C64.1264 49.8013 64.0735 49.6755 64.0735 49.5297V49.5188L64.1008 43.2516L61.9024 43.268H61.8969C61.7475 43.268 61.618 43.2151 61.5087 43.1094C61.4029 43 61.3501 42.8706 61.3501 42.7211ZM75.0158 49.6063C75.0158 49.7484 74.9629 49.8724 74.8572 49.9781C74.7551 50.0802 74.6439 50.1312 74.5236 50.1312C74.4215 50.1312 74.3322 50.0948 74.2557 50.0219C74.1791 49.9526 74.1262 49.8997 74.0971 49.8633C73.7653 49.6299 73.4773 49.3656 73.233 49.0703C72.9924 48.7714 72.7864 48.4469 72.615 48.0969C72.4655 47.7833 72.3124 47.5391 72.1557 47.3641C72.0025 47.1891 71.8166 47.0651 71.5978 46.9922C71.3791 46.9193 71.0947 46.881 70.7447 46.8773L70.2471 46.8719L70.2525 49.5188V49.5297C70.2525 49.6755 70.1978 49.8031 70.0885 49.9125C69.9827 50.0219 69.8551 50.0766 69.7057 50.0766C69.5562 50.0766 69.4267 50.0182 69.3174 49.9016C69.2116 49.7849 69.1588 49.6464 69.1588 49.4859L69.1424 42.6992C69.1424 42.5461 69.1952 42.4185 69.301 42.3164C69.4103 42.2107 69.5379 42.156 69.6838 42.1523L71.1385 42.1469H71.2642C71.8913 42.1469 72.451 42.2398 72.9432 42.4258C73.4353 42.6081 73.8236 42.8833 74.108 43.2516C74.3924 43.6161 74.5346 44.0701 74.5346 44.6133C74.5346 44.9633 74.4616 45.275 74.3158 45.5484C74.1736 45.8219 73.9859 46.0534 73.7525 46.243C73.5192 46.4326 73.2676 46.5802 72.9978 46.6859C73.1218 46.8427 73.2458 47.0359 73.3697 47.2656C73.5812 47.6703 73.7872 48.0294 73.9877 48.343C74.1882 48.6529 74.4525 48.9263 74.7807 49.1633C74.8463 49.207 74.901 49.269 74.9447 49.3492C74.9921 49.4258 75.0158 49.5115 75.0158 49.6063ZM71.2916 43.2406H70.2361L70.2471 45.8547L71.3025 45.8438C71.9734 45.8365 72.4984 45.7344 72.8775 45.5375C73.2603 45.3406 73.4517 45.0253 73.4517 44.5914C73.4517 44.1466 73.2494 43.8112 72.8447 43.5852C72.44 43.3555 71.9223 43.2406 71.2916 43.2406ZM76.3988 42.6938C76.3988 42.5479 76.4516 42.424 76.5573 42.3219C76.6667 42.2161 76.7961 42.1633 76.9456 42.1633L81.6323 42.1688H81.6378C81.7873 42.1688 81.9149 42.2234 82.0206 42.3328C82.13 42.4385 82.1847 42.5661 82.1847 42.7156C82.1847 42.8651 82.13 42.9945 82.0206 43.1039C81.9149 43.2096 81.7873 43.2625 81.6378 43.2625H81.6323L77.4925 43.257L77.498 45.4992L81.1839 45.5266C81.3407 45.5266 81.4701 45.5813 81.5722 45.6906C81.6779 45.8 81.7308 45.9404 81.7308 46.1117C81.7308 46.2576 81.6743 46.3815 81.5613 46.4836C81.4482 46.582 81.3224 46.6313 81.1839 46.6313H81.1784L77.5034 46.6039L77.5089 48.9172L81.6323 48.9117H81.6378C81.7873 48.9117 81.9149 48.9664 82.0206 49.0758C82.13 49.1815 82.1847 49.3091 82.1847 49.4586C82.1847 49.6081 82.13 49.7375 82.0206 49.8469C81.9149 49.9526 81.7873 50.0055 81.6378 50.0055H81.6323L76.962 50.0109C76.8126 50.0109 76.6831 49.9581 76.5738 49.8523C76.468 49.743 76.4152 49.6154 76.4152 49.4695L76.3988 42.6938ZM86.8762 42.0539C87.2955 42.0539 87.6911 42.125 88.0629 42.2672C88.4385 42.4094 88.7666 42.6063 89.0473 42.8578C89.328 43.1094 89.5413 43.401 89.6872 43.7328C89.72 43.8057 89.7364 43.8805 89.7364 43.957C89.7364 44.1065 89.6817 44.2359 89.5723 44.3453C89.4666 44.451 89.339 44.5039 89.1895 44.5039C89.0911 44.5039 88.9926 44.4729 88.8942 44.4109C88.7958 44.3453 88.7265 44.2669 88.6864 44.1758C88.5478 43.8622 88.3163 43.6125 87.9918 43.4266C87.671 43.2406 87.2991 43.1477 86.8762 43.1477C86.6684 43.1477 86.4478 43.1732 86.2145 43.2242C85.9848 43.2753 85.7679 43.3536 85.5637 43.4594C85.3596 43.5615 85.1937 43.6909 85.0661 43.8477C84.9385 44.0044 84.8747 44.1867 84.8747 44.3945C84.8747 44.5622 84.9293 44.7081 85.0387 44.832C85.1481 44.9523 85.2702 45.0471 85.4051 45.1164C85.7223 45.2732 86.0723 45.3826 86.4551 45.4445C86.8416 45.5065 87.2317 45.5667 87.6254 45.625C88.0192 45.6833 88.3856 45.7854 88.7247 45.9313C88.9398 46.0224 89.1458 46.1482 89.3426 46.3086C89.5395 46.469 89.6999 46.6641 89.8239 46.8938C89.9478 47.1234 90.0098 47.3932 90.0098 47.7031C90.0098 48.1042 89.9132 48.456 89.72 48.7586C89.5267 49.0612 89.2734 49.3128 88.9598 49.5133C88.6463 49.7138 88.3054 49.8651 87.9372 49.9672C87.5726 50.0656 87.2153 50.1148 86.8653 50.1148C86.3913 50.1148 85.9465 50.0401 85.5309 49.8906C85.1153 49.7375 84.7525 49.5224 84.4426 49.2453C84.1327 48.9646 83.8958 48.6365 83.7317 48.2609C83.6989 48.188 83.6825 48.1151 83.6825 48.0422C83.6825 47.8927 83.7353 47.7651 83.8411 47.6594C83.9504 47.55 84.0799 47.4953 84.2293 47.4953C84.3314 47.4953 84.4317 47.5281 84.5301 47.5938C84.6286 47.6557 84.696 47.7341 84.7325 47.8289C84.8929 48.1971 85.1645 48.4888 85.5473 48.7039C85.9301 48.9154 86.3695 49.0211 86.8653 49.0211C87.1752 49.0211 87.4869 48.9755 87.8004 48.8844C88.114 48.7896 88.3765 48.6456 88.5879 48.4523C88.803 48.2555 88.9106 48.0057 88.9106 47.7031C88.9106 47.5099 88.845 47.3513 88.7137 47.2273C88.5861 47.0997 88.4458 47.0031 88.2926 46.9375C87.9463 46.788 87.5762 46.6859 87.1825 46.6313C86.7887 46.5729 86.3968 46.5128 86.0067 46.4508C85.6166 46.3852 85.252 46.2667 84.9129 46.0953C84.6249 45.9495 84.3624 45.738 84.1254 45.4609C83.8921 45.1802 83.7754 44.8247 83.7754 44.3945C83.7754 44.0154 83.8666 43.6818 84.0489 43.3938C84.2348 43.1021 84.4791 42.8578 84.7817 42.6609C85.0879 42.4604 85.4234 42.3091 85.7879 42.207C86.1525 42.1049 86.5153 42.0539 86.8762 42.0539Z" fill="white"/>
</svg>
