<svg width="63" height="44" viewBox="0 0 63 44" fill="none" xmlns="http://www.w3.org/2000/svg">
<g clip-path="url(#clip0_307_2)">
<path d="M10.4048 6.95313C11.2142 6.95313 12.0017 7.11719 12.7673 7.44531C13.5439 7.7625 14.233 8.16719 14.8345 8.65938C15.447 9.14063 15.9009 9.63828 16.1962 10.1523L16.3767 8.57734C16.3767 8.12891 16.508 7.74609 16.7705 7.42891C17.033 7.10078 17.3884 6.93672 17.8369 6.93672C18.2853 6.93672 18.6681 7.10078 18.9853 7.42891C19.3134 7.74609 19.4775 8.12891 19.4775 8.57734V8.61016L19.4447 23.8023C19.4447 24.2508 19.2806 24.6391 18.9525 24.9672C18.6353 25.2844 18.2525 25.443 17.8041 25.443C17.3556 25.443 17.0002 25.2844 16.7377 24.9672C16.4752 24.6391 16.3439 24.2508 16.3439 23.8023L16.1634 22.4898C15.5947 23.4633 14.7634 24.1906 13.6697 24.6719C12.5759 25.1422 11.4767 25.3773 10.372 25.3773C9.13609 25.3773 7.97672 25.1367 6.89391 24.6555C5.81109 24.1633 4.85953 23.4906 4.03922 22.6375C3.21891 21.7844 2.57359 20.8055 2.10328 19.7008C1.64391 18.5961 1.41422 17.4313 1.41422 16.2063C1.41422 14.9922 1.63844 13.8328 2.08688 12.7281C2.54625 11.6125 3.18063 10.6227 3.99 9.75859C4.81031 8.88359 5.76187 8.2 6.84469 7.70781C7.93844 7.20469 9.12516 6.95313 10.4048 6.95313ZM16.065 16.1734C16.065 15.1016 15.8134 14.1172 15.3103 13.2203C14.8181 12.3234 14.1455 11.6016 13.2923 11.0547C12.4392 10.5078 11.4658 10.2344 10.372 10.2344C9.30016 10.2344 8.33219 10.5078 7.46812 11.0547C6.60406 11.6016 5.92047 12.3289 5.41734 13.2367C4.91422 14.1336 4.66266 15.107 4.66266 16.157C4.66266 17.218 4.91969 18.2023 5.43375 19.1102C5.94781 20.007 6.63687 20.7289 7.50094 21.2758C8.37594 21.8227 9.33844 22.0961 10.3884 22.0961C11.4384 22.0961 12.39 21.8227 13.2431 21.2758C14.1072 20.7289 14.7908 20.007 15.2939 19.1102C15.808 18.2023 16.065 17.2234 16.065 16.1734ZM28.7437 7.01875C29.8047 7.01875 30.7344 7.27578 31.5328 7.78984C32.3422 8.30391 33.0039 8.92734 33.518 9.66016C34.1305 8.94922 34.8687 8.33125 35.7328 7.80625C36.5969 7.27031 37.5594 7.00234 38.6203 7.00234C40.0203 7.00234 41.1797 7.37969 42.0984 8.13438C43.0281 8.87813 43.7172 9.85703 44.1656 11.0711C44.6141 12.2852 44.8383 13.5977 44.8383 15.0086L44.8547 23.7531C44.8547 24.1906 44.6961 24.568 44.3789 24.8852C44.0617 25.2023 43.6734 25.3609 43.2141 25.3609C42.7547 25.3609 42.3664 25.2023 42.0492 24.8852C41.732 24.568 41.5734 24.1906 41.5734 23.7531L41.557 15.0414C41.557 14.2102 41.4805 13.4336 41.3273 12.7117C41.1742 11.9789 40.8953 11.3883 40.4906 10.9398C40.0859 10.4914 39.5008 10.2672 38.7352 10.2672C37.9258 10.2672 37.2312 10.4914 36.6516 10.9398C36.0828 11.3883 35.6453 11.9789 35.3391 12.7117C35.0437 13.4336 34.8961 14.2156 34.8961 15.0578L34.9125 23.8023C34.9125 24.2398 34.7484 24.6172 34.4203 24.9344C34.1031 25.2406 33.7203 25.3937 33.2719 25.3937C32.8125 25.3937 32.4242 25.2352 32.107 24.918C31.7898 24.6008 31.6312 24.2234 31.6312 23.7859V15.0742C31.6312 14.0461 31.4562 13.1766 31.1062 12.4656C30.7672 11.7547 30.3242 11.2188 29.7773 10.8578C29.2414 10.4859 28.6891 10.3 28.1203 10.3C27.3109 10.3 26.5836 10.6773 25.9383 11.432C25.293 12.1867 24.9703 13.3625 24.9703 14.9594V23.8023C24.9703 24.2398 24.8062 24.6172 24.4781 24.9344C24.1609 25.2406 23.7781 25.3937 23.3297 25.3937C22.8812 25.3937 22.493 25.2352 22.1648 24.918C21.8477 24.6008 21.6891 24.2234 21.6891 23.7859V8.61016C21.6891 8.16172 21.7711 7.78438 21.9352 7.47813C22.1102 7.16094 22.4273 7.00234 22.8867 7.00234C23.2477 7.00234 23.5812 7.11719 23.8875 7.34688C24.1937 7.57656 24.4398 7.95938 24.6258 8.49531L24.9375 9.39766C25.2875 8.67578 25.8234 8.10156 26.5453 7.675C27.2781 7.2375 28.0109 7.01875 28.7437 7.01875ZM60.8475 7.03516C61.2412 7.03516 61.5967 7.19375 61.9139 7.51094C62.242 7.82813 62.4061 8.17813 62.4061 8.56094C62.4061 8.9 62.3514 9.17891 62.242 9.39766L55.3186 24.3766C55.0233 25 54.5202 25.3117 53.8092 25.3117C53.0764 25.3117 52.5842 24.9781 52.3327 24.3109L46.1311 9.33203C46.0436 9.14609 45.9998 8.88906 45.9998 8.56094C45.9998 8.21094 46.1475 7.87188 46.4428 7.54375C46.7491 7.20469 47.0881 7.03516 47.46 7.03516C48.3131 7.03516 48.8819 7.37422 49.1662 8.05234L53.9405 19.668L59.2725 7.98672C59.5678 7.35234 60.0928 7.03516 60.8475 7.03516ZM1.57456 30.7211C1.57456 30.5716 1.62743 30.444 1.73316 30.3383C1.84253 30.2289 1.97196 30.1742 2.12144 30.1742H2.12691L7.59019 30.1414H7.60113C7.75061 30.1414 7.87821 30.1961 7.98394 30.3055C8.09331 30.4112 8.148 30.5388 8.148 30.6883C8.148 30.8378 8.09331 30.9672 7.98394 31.0766C7.87821 31.1823 7.75061 31.2352 7.60113 31.2352H7.59566L5.4191 31.2461L5.39175 37.5242V37.5297C5.39175 37.6755 5.33706 37.8013 5.22769 37.907C5.12196 38.0128 4.99436 38.0656 4.84488 38.0656C4.6954 38.0656 4.56597 38.0128 4.4566 37.907C4.35087 37.8013 4.298 37.6755 4.298 37.5297V37.5188L4.32535 31.2516L2.12691 31.268H2.12144C1.97196 31.268 1.84253 31.2151 1.73316 31.1094C1.62743 31 1.57456 30.8706 1.57456 30.7211ZM9.36688 30.5133C9.36688 30.3711 9.42521 30.2563 9.54188 30.1688C9.65854 30.0813 9.77156 30.0375 9.88094 30.0375C10.0341 30.0411 10.169 30.0904 10.2856 30.1852C10.4023 30.2799 10.4606 30.4076 10.4606 30.568L10.4661 33.6414L14.5567 33.6359L14.5622 30.568C14.5513 30.4221 14.6005 30.2982 14.7098 30.1961C14.8229 30.0904 14.9541 30.0375 15.1036 30.0375C15.2531 30.0375 15.3825 30.0885 15.4919 30.1906C15.6013 30.2927 15.6559 30.4185 15.6559 30.568L15.6505 37.5188C15.6505 37.6646 15.5958 37.7904 15.4864 37.8961C15.3807 37.9982 15.2531 38.0492 15.1036 38.0492C14.9541 38.0492 14.8247 38 14.7153 37.9016C14.6096 37.7995 14.5567 37.6755 14.5567 37.5297V34.7406L10.4716 34.7461L10.477 37.5352C10.477 37.6846 10.4242 37.8104 10.3184 37.9125C10.2127 38.0146 10.0833 38.0656 9.93016 38.0656C9.78068 38.0656 9.65125 38.0146 9.54188 37.9125C9.43615 37.8068 9.38328 37.681 9.38328 37.5352C9.37964 36.3758 9.37599 35.2164 9.37235 34.057C9.37235 32.894 9.37052 31.7328 9.36688 30.5734V30.5133ZM17.1483 30.6938C17.1483 30.5479 17.2011 30.424 17.3068 30.3219C17.4162 30.2161 17.5456 30.1633 17.6951 30.1633L22.3818 30.1688H22.3873C22.5368 30.1688 22.6644 30.2234 22.7701 30.3328C22.8795 30.4385 22.9342 30.5661 22.9342 30.7156C22.9342 30.8651 22.8795 30.9945 22.7701 31.1039C22.6644 31.2096 22.5368 31.2625 22.3873 31.2625H22.3818L18.242 31.257L18.2475 33.4992L21.9334 33.5266C22.0902 33.5266 22.2196 33.5813 22.3217 33.6906C22.4274 33.8 22.4803 33.9404 22.4803 34.1117C22.4803 34.2576 22.4238 34.3815 22.3108 34.4836C22.1977 34.582 22.0719 34.6313 21.9334 34.6313H21.9279L18.2529 34.6039L18.2584 36.9172L22.3818 36.9117H22.3873C22.5368 36.9117 22.6644 36.9664 22.7701 37.0758C22.8795 37.1815 22.9342 37.3091 22.9342 37.4586C22.9342 37.6081 22.8795 37.7375 22.7701 37.8469C22.6644 37.9526 22.5368 38.0055 22.3873 38.0055H22.3818L17.7115 38.0109C17.5621 38.0109 17.4326 37.9581 17.3233 37.8523C17.2175 37.743 17.1647 37.6154 17.1647 37.4695L17.1483 30.6938ZM27.2101 30.3711C27.2502 30.2799 27.3176 30.2034 27.4124 30.1414C27.5109 30.0758 27.6111 30.043 27.7132 30.043C27.8117 30.043 27.9101 30.0758 28.0085 30.1414C28.1106 30.2034 28.1799 30.2799 28.2163 30.3711L31.2242 37.3492C31.257 37.4221 31.2734 37.4969 31.2734 37.5734C31.2734 37.7229 31.2187 37.8523 31.1093 37.9617C31.0036 38.0674 30.876 38.1203 30.7265 38.1203C30.6244 38.1203 30.5242 38.0875 30.4257 38.0219C30.3273 37.9563 30.258 37.8779 30.2179 37.7867L29.2828 35.6156L26.1656 35.5719L25.2085 37.7922C25.1721 37.8833 25.1046 37.9617 25.0062 38.0273C24.9078 38.0966 24.8075 38.1312 24.7054 38.1312C24.5559 38.1312 24.4265 38.0784 24.3171 37.9727C24.2114 37.8633 24.1585 37.7339 24.1585 37.5844C24.1585 37.5078 24.1749 37.4331 24.2078 37.3602L27.2101 30.3711ZM27.7132 31.9734L26.6359 34.4836L28.807 34.5109L27.7132 31.9734ZM32.3501 30.7211C32.3501 30.5716 32.4029 30.444 32.5087 30.3383C32.618 30.2289 32.7475 30.1742 32.8969 30.1742H32.9024L38.3657 30.1414H38.3766C38.5261 30.1414 38.6537 30.1961 38.7594 30.3055C38.8688 30.4112 38.9235 30.5388 38.9235 30.6883C38.9235 30.8378 38.8688 30.9672 38.7594 31.0766C38.6537 31.1823 38.5261 31.2352 38.3766 31.2352H38.3712L36.1946 31.2461L36.1673 37.5242V37.5297C36.1673 37.6755 36.1126 37.8013 36.0032 37.907C35.8975 38.0128 35.7699 38.0656 35.6204 38.0656C35.4709 38.0656 35.3415 38.0128 35.2321 37.907C35.1264 37.8013 35.0735 37.6755 35.0735 37.5297V37.5188L35.1008 31.2516L32.9024 31.268H32.8969C32.7475 31.268 32.618 31.2151 32.5087 31.1094C32.4029 31 32.3501 30.8706 32.3501 30.7211ZM46.0158 37.6063C46.0158 37.7484 45.9629 37.8724 45.8572 37.9781C45.7551 38.0802 45.6439 38.1312 45.5236 38.1312C45.4215 38.1312 45.3322 38.0948 45.2557 38.0219C45.1791 37.9526 45.1262 37.8997 45.0971 37.8633C44.7653 37.6299 44.4773 37.3656 44.233 37.0703C43.9924 36.7714 43.7864 36.4469 43.615 36.0969C43.4655 35.7833 43.3124 35.5391 43.1557 35.3641C43.0025 35.1891 42.8166 35.0651 42.5978 34.9922C42.3791 34.9193 42.0947 34.881 41.7447 34.8773L41.2471 34.8719L41.2525 37.5188V37.5297C41.2525 37.6755 41.1978 37.8031 41.0885 37.9125C40.9827 38.0219 40.8551 38.0766 40.7057 38.0766C40.5562 38.0766 40.4267 38.0182 40.3174 37.9016C40.2116 37.7849 40.1588 37.6464 40.1588 37.4859L40.1424 30.6992C40.1424 30.5461 40.1952 30.4185 40.301 30.3164C40.4103 30.2107 40.5379 30.156 40.6838 30.1523L42.1385 30.1469H42.2642C42.8913 30.1469 43.451 30.2398 43.9432 30.4258C44.4353 30.6081 44.8236 30.8833 45.108 31.2516C45.3924 31.6161 45.5346 32.0701 45.5346 32.6133C45.5346 32.9633 45.4616 33.275 45.3158 33.5484C45.1736 33.8219 44.9859 34.0534 44.7525 34.243C44.5192 34.4326 44.2676 34.5802 43.9978 34.6859C44.1218 34.8427 44.2458 35.0359 44.3697 35.2656C44.5812 35.6703 44.7872 36.0294 44.9877 36.343C45.1882 36.6529 45.4525 36.9263 45.7807 37.1633C45.8463 37.207 45.901 37.269 45.9447 37.3492C45.9921 37.4258 46.0158 37.5115 46.0158 37.6063ZM42.2916 31.2406H41.2361L41.2471 33.8547L42.3025 33.8438C42.9734 33.8365 43.4984 33.7344 43.8775 33.5375C44.2603 33.3406 44.4517 33.0253 44.4517 32.5914C44.4517 32.1466 44.2494 31.8112 43.8447 31.5852C43.44 31.3555 42.9223 31.2406 42.2916 31.2406ZM47.3988 30.6938C47.3988 30.5479 47.4516 30.424 47.5573 30.3219C47.6667 30.2161 47.7961 30.1633 47.9456 30.1633L52.6323 30.1688H52.6378C52.7873 30.1688 52.9149 30.2234 53.0206 30.3328C53.13 30.4385 53.1847 30.5661 53.1847 30.7156C53.1847 30.8651 53.13 30.9945 53.0206 31.1039C52.9149 31.2096 52.7873 31.2625 52.6378 31.2625H52.6323L48.4925 31.257L48.498 33.4992L52.1839 33.5266C52.3407 33.5266 52.4701 33.5813 52.5722 33.6906C52.6779 33.8 52.7308 33.9404 52.7308 34.1117C52.7308 34.2576 52.6743 34.3815 52.5613 34.4836C52.4482 34.582 52.3224 34.6313 52.1839 34.6313H52.1784L48.5034 34.6039L48.5089 36.9172L52.6323 36.9117H52.6378C52.7873 36.9117 52.9149 36.9664 53.0206 37.0758C53.13 37.1815 53.1847 37.3091 53.1847 37.4586C53.1847 37.6081 53.13 37.7375 53.0206 37.8469C52.9149 37.9526 52.7873 38.0055 52.6378 38.0055H52.6323L47.962 38.0109C47.8126 38.0109 47.6831 37.9581 47.5738 37.8523C47.468 37.743 47.4152 37.6154 47.4152 37.4695L47.3988 30.6938ZM57.8762 30.0539C58.2955 30.0539 58.6911 30.125 59.0629 30.2672C59.4385 30.4094 59.7666 30.6063 60.0473 30.8578C60.328 31.1094 60.5413 31.401 60.6872 31.7328C60.72 31.8057 60.7364 31.8805 60.7364 31.957C60.7364 32.1065 60.6817 32.2359 60.5723 32.3453C60.4666 32.451 60.339 32.5039 60.1895 32.5039C60.0911 32.5039 59.9926 32.4729 59.8942 32.4109C59.7958 32.3453 59.7265 32.2669 59.6864 32.1758C59.5478 31.8622 59.3163 31.6125 58.9918 31.4266C58.671 31.2406 58.2991 31.1477 57.8762 31.1477C57.6684 31.1477 57.4478 31.1732 57.2145 31.2242C56.9848 31.2753 56.7679 31.3536 56.5637 31.4594C56.3596 31.5615 56.1937 31.6909 56.0661 31.8477C55.9385 32.0044 55.8747 32.1867 55.8747 32.3945C55.8747 32.5622 55.9293 32.7081 56.0387 32.832C56.1481 32.9523 56.2702 33.0471 56.4051 33.1164C56.7223 33.2732 57.0723 33.3826 57.4551 33.4445C57.8416 33.5065 58.2317 33.5667 58.6254 33.625C59.0192 33.6833 59.3856 33.7854 59.7247 33.9313C59.9398 34.0224 60.1458 34.1482 60.3426 34.3086C60.5395 34.469 60.6999 34.6641 60.8239 34.8938C60.9478 35.1234 61.0098 35.3932 61.0098 35.7031C61.0098 36.1042 60.9132 36.456 60.72 36.7586C60.5267 37.0612 60.2734 37.3128 59.9598 37.5133C59.6463 37.7138 59.3054 37.8651 58.9372 37.9672C58.5726 38.0656 58.2153 38.1148 57.8653 38.1148C57.3913 38.1148 56.9465 38.0401 56.5309 37.8906C56.1153 37.7375 55.7525 37.5224 55.4426 37.2453C55.1327 36.9646 54.8958 36.6365 54.7317 36.2609C54.6989 36.188 54.6825 36.1151 54.6825 36.0422C54.6825 35.8927 54.7353 35.7651 54.8411 35.6594C54.9504 35.55 55.0799 35.4953 55.2293 35.4953C55.3314 35.4953 55.4317 35.5281 55.5301 35.5938C55.6286 35.6557 55.696 35.7341 55.7325 35.8289C55.8929 36.1971 56.1645 36.4888 56.5473 36.7039C56.9301 36.9154 57.3695 37.0211 57.8653 37.0211C58.1752 37.0211 58.4869 36.9755 58.8004 36.8844C59.114 36.7896 59.3765 36.6456 59.5879 36.4523C59.803 36.2555 59.9106 36.0057 59.9106 35.7031C59.9106 35.5099 59.845 35.3513 59.7137 35.2273C59.5861 35.0997 59.4458 35.0031 59.2926 34.9375C58.9463 34.788 58.5762 34.6859 58.1825 34.6313C57.7887 34.5729 57.3968 34.5128 57.0067 34.4508C56.6166 34.3852 56.252 34.2667 55.9129 34.0953C55.6249 33.9495 55.3624 33.738 55.1254 33.4609C54.8921 33.1802 54.7754 32.8247 54.7754 32.3945C54.7754 32.0154 54.8666 31.6818 55.0489 31.3938C55.2348 31.1021 55.4791 30.8578 55.7817 30.6609C56.0879 30.4604 56.4234 30.3091 56.7879 30.207C57.1525 30.1049 57.5153 30.0539 57.8762 30.0539Z" fill="#242424"/>
</g>
<defs>
<clipPath id="clip0_307_2">
<rect width="63" height="44" fill="white"/>
</clipPath>
</defs>
</svg>
