<svg width="120" height="69" viewBox="0 0 120 69" fill="none" xmlns="http://www.w3.org/2000/svg">
<rect width="120" height="69" rx="9" fill="#232323"/>
<path d="M27.6922 31.1818H29.2007V41.7159C29.2007 42.321 29.0963 42.8452 28.8875 43.2884C28.683 43.7315 28.3719 44.0746 27.9543 44.3175C27.5409 44.5604 27.0189 44.6818 26.3882 44.6818C26.3371 44.6818 26.286 44.6818 26.2348 44.6818C26.1837 44.6818 26.1325 44.6818 26.0814 44.6818V43.2756C26.1325 43.2756 26.1794 43.2756 26.222 43.2756C26.2646 43.2756 26.3115 43.2756 26.3627 43.2756C26.8229 43.2756 27.1595 43.1392 27.3726 42.8665C27.5857 42.598 27.6922 42.2145 27.6922 41.7159V31.1818ZM28.4337 29.5455C28.1396 29.5455 27.8861 29.4453 27.673 29.245C27.4642 29.0447 27.3598 28.804 27.3598 28.5227C27.3598 28.2415 27.4642 28.0007 27.673 27.8004C27.8861 27.6001 28.1396 27.5 28.4337 27.5C28.7277 27.5 28.9791 27.6001 29.1879 27.8004C29.401 28.0007 29.5075 28.2415 29.5075 28.5227C29.5075 28.804 29.401 29.0447 29.1879 29.245C28.9791 29.4453 28.7277 29.5455 28.4337 29.5455ZM36.0802 41.2045C35.1341 41.2045 34.3181 40.9957 33.632 40.5781C32.9502 40.1562 32.4239 39.5682 32.0532 38.8139C31.6867 38.0554 31.5035 37.1733 31.5035 36.1676C31.5035 35.1619 31.6867 34.2756 32.0532 33.5085C32.4239 32.7372 32.9395 32.1364 33.6001 31.706C34.2648 31.2713 35.0404 31.054 35.9268 31.054C36.4381 31.054 36.9431 31.1392 37.4417 31.3097C37.9403 31.4801 38.3941 31.7571 38.8032 32.1406C39.2123 32.5199 39.5383 33.0227 39.7812 33.6491C40.0241 34.2756 40.1455 35.0469 40.1455 35.9631V36.6023H32.5773V35.2983H38.6114C38.6114 34.7443 38.5006 34.25 38.279 33.8153C38.0617 33.3807 37.7506 33.0376 37.3458 32.7862C36.9452 32.5348 36.4722 32.4091 35.9268 32.4091C35.3259 32.4091 34.806 32.5582 34.3671 32.8565C33.9324 33.1506 33.5979 33.5341 33.3635 34.0071C33.1292 34.4801 33.012 34.9872 33.012 35.5284V36.3977C33.012 37.1392 33.1398 37.7678 33.3955 38.2834C33.6555 38.7947 34.0155 39.1847 34.4758 39.4531C34.936 39.7173 35.4708 39.8494 36.0802 39.8494C36.4765 39.8494 36.8344 39.794 37.154 39.6832C37.4779 39.5682 37.757 39.3977 37.9914 39.1719C38.2258 38.9418 38.4069 38.6562 38.5347 38.3153L39.9921 38.7244C39.8387 39.2188 39.5809 39.6534 39.2187 40.0284C38.8564 40.3991 38.409 40.6889 37.8763 40.8977C37.3437 41.1023 36.7449 41.2045 36.0802 41.2045ZM46.8124 31.1818V32.4602H41.5198V31.1818H46.8124ZM43.105 41V29.8267C43.105 29.2642 43.2371 28.7955 43.5013 28.4205C43.7655 28.0455 44.1086 27.7642 44.5305 27.5767C44.9523 27.3892 45.3976 27.2955 45.8664 27.2955C46.2371 27.2955 46.5397 27.3253 46.7741 27.3849C47.0084 27.4446 47.1831 27.5 47.2982 27.5511L46.8635 28.8551C46.7868 28.8295 46.6803 28.7976 46.5439 28.7592C46.4118 28.7209 46.2371 28.7017 46.0198 28.7017C45.5212 28.7017 45.1611 28.8274 44.9395 29.0788C44.7222 29.3303 44.6135 29.6989 44.6135 30.1847V41H43.105ZM53.2987 31.1818V32.4602H48.0061V31.1818H53.2987ZM49.5914 41V29.8267C49.5914 29.2642 49.7235 28.7955 49.9877 28.4205C50.2519 28.0455 50.5949 27.7642 51.0168 27.5767C51.4387 27.3892 51.884 27.2955 52.3527 27.2955C52.7235 27.2955 53.026 27.3253 53.2604 27.3849C53.4948 27.4446 53.6695 27.5 53.7845 27.5511L53.3499 28.8551C53.2732 28.8295 53.1666 28.7976 53.0303 28.7592C52.8982 28.7209 52.7235 28.7017 52.5061 28.7017C52.0075 28.7017 51.6475 28.8274 51.4259 29.0788C51.2085 29.3303 51.0999 29.6989 51.0999 30.1847V41H49.5914ZM54.9271 41V31.1818H58.3532V33.0483H58.4555C58.6345 32.358 58.9179 31.853 59.3057 31.5334C59.6977 31.2138 60.1558 31.054 60.68 31.054C60.8334 31.054 60.9846 31.0668 61.1338 31.0923C61.2872 31.1136 61.4342 31.1456 61.5748 31.1882V34.1989C61.4001 34.1392 61.1849 34.0945 60.9292 34.0646C60.6736 34.0348 60.4541 34.0199 60.2709 34.0199C59.9257 34.0199 59.6146 34.0987 59.3376 34.2564C59.0649 34.4098 58.8497 34.6271 58.692 34.9084C58.5344 35.1854 58.4555 35.5114 58.4555 35.8864V41H54.9271ZM66.8994 41.179C65.8341 41.179 64.9221 40.968 64.1636 40.5462C63.4051 40.12 62.8234 39.5277 62.4186 38.7692C62.0138 38.0064 61.8113 37.1222 61.8113 36.1165C61.8113 35.1108 62.0138 34.2287 62.4186 33.4702C62.8234 32.7074 63.4051 32.1151 64.1636 31.6932C64.9221 31.267 65.8341 31.054 66.8994 31.054C67.9648 31.054 68.8767 31.267 69.6352 31.6932C70.3937 32.1151 70.9754 32.7074 71.3802 33.4702C71.7851 34.2287 71.9875 35.1108 71.9875 36.1165C71.9875 37.1222 71.7851 38.0064 71.3802 38.7692C70.9754 39.5277 70.3937 40.12 69.6352 40.5462C68.8767 40.968 67.9648 41.179 66.8994 41.179ZM66.925 38.571C67.2233 38.571 67.4811 38.4709 67.6984 38.2706C67.9157 38.0703 68.0841 37.7848 68.2034 37.4141C68.3227 37.0433 68.3824 36.6023 68.3824 36.0909C68.3824 35.5753 68.3227 35.1342 68.2034 34.7678C68.0841 34.397 67.9157 34.1115 67.6984 33.9112C67.4811 33.7109 67.2233 33.6108 66.925 33.6108C66.6096 33.6108 66.339 33.7109 66.1132 33.9112C65.8873 34.1115 65.7148 34.397 65.5954 34.7678C65.4761 35.1342 65.4165 35.5753 65.4165 36.0909C65.4165 36.6023 65.4761 37.0433 65.5954 37.4141C65.7148 37.7848 65.8873 38.0703 66.1132 38.2706C66.339 38.4709 66.6096 38.571 66.925 38.571ZM82.3937 34.3778H79.1466C79.1295 34.1776 79.0592 34.005 78.9356 33.8601C78.8121 33.7152 78.6523 33.6044 78.4562 33.5277C78.2645 33.4467 78.0514 33.4062 77.817 33.4062C77.5145 33.4062 77.2545 33.4616 77.0372 33.5724C76.8199 33.6832 76.7133 33.8409 76.7176 34.0455C76.7133 34.1903 76.7751 34.3246 76.903 34.4482C77.0351 34.5717 77.2886 34.6676 77.6636 34.7358L79.6579 35.0938C80.6636 35.277 81.4115 35.5859 81.9015 36.0206C82.3959 36.451 82.6452 37.0284 82.6494 37.7528C82.6452 38.4517 82.4363 39.0589 82.023 39.5746C81.6139 40.0859 81.0535 40.4822 80.3419 40.7635C79.6345 41.0405 78.827 41.179 77.9193 41.179C76.4193 41.179 75.2453 40.8722 74.3973 40.2585C73.5535 39.6449 73.0827 38.8352 72.9846 37.8295H76.4875C76.5344 38.1406 76.6878 38.3814 76.9477 38.5518C77.2119 38.718 77.5443 38.8011 77.9449 38.8011C78.2687 38.8011 78.5351 38.7457 78.7439 38.6349C78.9569 38.5241 79.0656 38.3665 79.0699 38.1619C79.0656 37.9744 78.9719 37.8253 78.7886 37.7145C78.6096 37.6037 78.3284 37.5142 77.9449 37.446L76.2062 37.1392C75.2048 36.9645 74.4548 36.6321 73.9562 36.142C73.4577 35.652 73.2105 35.0213 73.2148 34.25C73.2105 33.5682 73.3895 32.9908 73.7517 32.5178C74.1182 32.0405 74.6402 31.6783 75.3177 31.4311C75.9996 31.1797 76.8071 31.054 77.7403 31.054C79.1594 31.054 80.278 31.348 81.0961 31.9361C81.9186 32.5241 82.3511 33.3381 82.3937 34.3778ZM92.9758 34.3778H89.7286C89.7116 34.1776 89.6412 34.005 89.5177 33.8601C89.3941 33.7152 89.2343 33.6044 89.0383 33.5277C88.8465 33.4467 88.6334 33.4062 88.3991 33.4062C88.0965 33.4062 87.8366 33.4616 87.6192 33.5724C87.4019 33.6832 87.2954 33.8409 87.2996 34.0455C87.2954 34.1903 87.3572 34.3246 87.485 34.4482C87.6171 34.5717 87.8707 34.6676 88.2457 34.7358L90.24 35.0938C91.2457 35.277 91.9935 35.5859 92.4836 36.0206C92.9779 36.451 93.2272 37.0284 93.2314 37.7528C93.2272 38.4517 93.0184 39.0589 92.605 39.5746C92.1959 40.0859 91.6356 40.4822 90.9239 40.7635C90.2165 41.0405 89.409 41.179 88.5013 41.179C87.0013 41.179 85.8273 40.8722 84.9793 40.2585C84.1356 39.6449 83.6647 38.8352 83.5667 37.8295H87.0695C87.1164 38.1406 87.2698 38.3814 87.5297 38.5518C87.7939 38.718 88.1263 38.8011 88.5269 38.8011C88.8508 38.8011 89.1171 38.7457 89.3259 38.6349C89.539 38.5241 89.6476 38.3665 89.6519 38.1619C89.6476 37.9744 89.5539 37.8253 89.3707 37.7145C89.1917 37.6037 88.9104 37.5142 88.5269 37.446L86.7883 37.1392C85.7868 36.9645 85.0368 36.6321 84.5383 36.142C84.0397 35.652 83.7925 35.0213 83.7968 34.25C83.7925 33.5682 83.9715 32.9908 84.3337 32.5178C84.7002 32.0405 85.2222 31.6783 85.8998 31.4311C86.5816 31.1797 87.3891 31.054 88.3224 31.054C89.7414 31.054 90.86 31.348 91.6782 31.9361C92.5006 32.5241 92.9332 33.3381 92.9758 34.3778Z" fill="white"/>
</svg>
