<svg width="68" height="28" viewBox="0 0 68 28" fill="none" xmlns="http://www.w3.org/2000/svg">
<path d="M1.69221 11.1818H3.20073V21.7159C3.20073 22.321 3.09632 22.8452 2.88752 23.2884C2.68297 23.7315 2.37189 24.0746 1.95428 24.3175C1.54093 24.5604 1.01891 24.6818 0.388228 24.6818C0.337092 24.6818 0.285955 24.6818 0.234819 24.6818C0.183683 24.6818 0.132546 24.6818 0.0814098 24.6818V23.2756C0.132546 23.2756 0.179421 23.2756 0.222035 23.2756C0.264648 23.2756 0.311523 23.2756 0.36266 23.2756C0.822887 23.2756 1.15953 23.1392 1.3726 22.8665C1.58567 22.598 1.69221 22.2145 1.69221 21.7159V11.1818ZM2.43368 9.54545C2.13965 9.54545 1.8861 9.44531 1.67303 9.24503C1.46422 9.04474 1.35982 8.80398 1.35982 8.52273C1.35982 8.24148 1.46422 8.00071 1.67303 7.80043C1.8861 7.60014 2.13965 7.5 2.43368 7.5C2.72772 7.5 2.97914 7.60014 3.18794 7.80043C3.40101 8.00071 3.50755 8.24148 3.50755 8.52273C3.50755 8.80398 3.40101 9.04474 3.18794 9.24503C2.97914 9.44531 2.72772 9.54545 2.43368 9.54545ZM10.0802 21.2045C9.13414 21.2045 8.31809 20.9957 7.63201 20.5781C6.9502 20.1562 6.42392 19.5682 6.05318 18.8139C5.6867 18.0554 5.50346 17.1733 5.50346 16.1676C5.50346 15.1619 5.6867 14.2756 6.05318 13.5085C6.42392 12.7372 6.93954 12.1364 7.60005 11.706C8.26483 11.2713 9.04039 11.054 9.92676 11.054C10.4381 11.054 10.9431 11.1392 11.4417 11.3097C11.9403 11.4801 12.3941 11.7571 12.8032 12.1406C13.2123 12.5199 13.5383 13.0227 13.7812 13.6491C14.0241 14.2756 14.1455 15.0469 14.1455 15.9631V16.6023H6.57733V15.2983H12.6114C12.6114 14.7443 12.5006 14.25 12.279 13.8153C12.0617 13.3807 11.7506 13.0376 11.3458 12.7862C10.9452 12.5348 10.4722 12.4091 9.92676 12.4091C9.32591 12.4091 8.80602 12.5582 8.3671 12.8565C7.93244 13.1506 7.59792 13.5341 7.36355 14.0071C7.12917 14.4801 7.01199 14.9872 7.01199 15.5284V16.3977C7.01199 17.1392 7.13983 17.7678 7.39551 18.2834C7.65545 18.7947 8.01554 19.1847 8.47576 19.4531C8.93599 19.7173 9.47079 19.8494 10.0802 19.8494C10.4765 19.8494 10.8344 19.794 11.154 19.6832C11.4779 19.5682 11.757 19.3977 11.9914 19.1719C12.2258 18.9418 12.4069 18.6562 12.5347 18.3153L13.9921 18.7244C13.8387 19.2188 13.5809 19.6534 13.2187 20.0284C12.8564 20.3991 12.409 20.6889 11.8763 20.8977C11.3437 21.1023 10.7449 21.2045 10.0802 21.2045ZM20.8124 11.1818V12.4602H15.5198V11.1818H20.8124ZM17.105 21V9.8267C17.105 9.2642 17.2371 8.79545 17.5013 8.42045C17.7655 8.04545 18.1086 7.7642 18.5305 7.5767C18.9523 7.3892 19.3976 7.29545 19.8664 7.29545C20.2371 7.29545 20.5397 7.32528 20.7741 7.38494C21.0084 7.4446 21.1831 7.5 21.2982 7.55114L20.8635 8.85511C20.7868 8.82954 20.6803 8.79758 20.5439 8.75923C20.4118 8.72088 20.2371 8.7017 20.0198 8.7017C19.5212 8.7017 19.1611 8.82741 18.9395 9.07884C18.7222 9.33026 18.6135 9.69886 18.6135 10.1847V21H17.105ZM27.2987 11.1818V12.4602H22.0061V11.1818H27.2987ZM23.5914 21V9.8267C23.5914 9.2642 23.7235 8.79545 23.9877 8.42045C24.2519 8.04545 24.5949 7.7642 25.0168 7.5767C25.4387 7.3892 25.884 7.29545 26.3527 7.29545C26.7235 7.29545 27.026 7.32528 27.2604 7.38494C27.4948 7.4446 27.6695 7.5 27.7845 7.55114L27.3499 8.85511C27.2732 8.82954 27.1666 8.79758 27.0303 8.75923C26.8982 8.72088 26.7235 8.7017 26.5061 8.7017C26.0075 8.7017 25.6475 8.82741 25.4259 9.07884C25.2085 9.33026 25.0999 9.69886 25.0999 10.1847V21H23.5914ZM28.9271 21V11.1818H32.3532V13.0483H32.4555C32.6345 12.358 32.9179 11.853 33.3057 11.5334C33.6977 11.2138 34.1558 11.054 34.68 11.054C34.8334 11.054 34.9846 11.0668 35.1338 11.0923C35.2872 11.1136 35.4342 11.1456 35.5748 11.1882V14.1989C35.4001 14.1392 35.1849 14.0945 34.9292 14.0646C34.6736 14.0348 34.4541 14.0199 34.2709 14.0199C33.9257 14.0199 33.6146 14.0987 33.3376 14.2564C33.0649 14.4098 32.8497 14.6271 32.692 14.9084C32.5344 15.1854 32.4555 15.5114 32.4555 15.8864V21H28.9271ZM40.8994 21.179C39.8341 21.179 38.9221 20.968 38.1636 20.5462C37.4051 20.12 36.8234 19.5277 36.4186 18.7692C36.0138 18.0064 35.8113 17.1222 35.8113 16.1165C35.8113 15.1108 36.0138 14.2287 36.4186 13.4702C36.8234 12.7074 37.4051 12.1151 38.1636 11.6932C38.9221 11.267 39.8341 11.054 40.8994 11.054C41.9648 11.054 42.8767 11.267 43.6352 11.6932C44.3937 12.1151 44.9754 12.7074 45.3802 13.4702C45.7851 14.2287 45.9875 15.1108 45.9875 16.1165C45.9875 17.1222 45.7851 18.0064 45.3802 18.7692C44.9754 19.5277 44.3937 20.12 43.6352 20.5462C42.8767 20.968 41.9648 21.179 40.8994 21.179ZM40.925 18.571C41.2233 18.571 41.4811 18.4709 41.6984 18.2706C41.9157 18.0703 42.0841 17.7848 42.2034 17.4141C42.3227 17.0433 42.3824 16.6023 42.3824 16.0909C42.3824 15.5753 42.3227 15.1342 42.2034 14.7678C42.0841 14.397 41.9157 14.1115 41.6984 13.9112C41.4811 13.7109 41.2233 13.6108 40.925 13.6108C40.6096 13.6108 40.339 13.7109 40.1132 13.9112C39.8873 14.1115 39.7148 14.397 39.5954 14.7678C39.4761 15.1342 39.4165 15.5753 39.4165 16.0909C39.4165 16.6023 39.4761 17.0433 39.5954 17.4141C39.7148 17.7848 39.8873 18.0703 40.1132 18.2706C40.339 18.4709 40.6096 18.571 40.925 18.571ZM56.3937 14.3778H53.1466C53.1295 14.1776 53.0592 14.005 52.9356 13.8601C52.8121 13.7152 52.6523 13.6044 52.4562 13.5277C52.2645 13.4467 52.0514 13.4062 51.817 13.4062C51.5145 13.4062 51.2545 13.4616 51.0372 13.5724C50.8199 13.6832 50.7133 13.8409 50.7176 14.0455C50.7133 14.1903 50.7751 14.3246 50.903 14.4482C51.0351 14.5717 51.2886 14.6676 51.6636 14.7358L53.6579 15.0938C54.6636 15.277 55.4115 15.5859 55.9015 16.0206C56.3959 16.451 56.6452 17.0284 56.6494 17.7528C56.6452 18.4517 56.4363 19.0589 56.023 19.5746C55.6139 20.0859 55.0535 20.4822 54.3419 20.7635C53.6345 21.0405 52.827 21.179 51.9193 21.179C50.4193 21.179 49.2453 20.8722 48.3973 20.2585C47.5535 19.6449 47.0827 18.8352 46.9846 17.8295H50.4875C50.5344 18.1406 50.6878 18.3814 50.9477 18.5518C51.2119 18.718 51.5443 18.8011 51.9449 18.8011C52.2687 18.8011 52.5351 18.7457 52.7439 18.6349C52.9569 18.5241 53.0656 18.3665 53.0699 18.1619C53.0656 17.9744 52.9719 17.8253 52.7886 17.7145C52.6096 17.6037 52.3284 17.5142 51.9449 17.446L50.2062 17.1392C49.2048 16.9645 48.4548 16.6321 47.9562 16.142C47.4577 15.652 47.2105 15.0213 47.2148 14.25C47.2105 13.5682 47.3895 12.9908 47.7517 12.5178C48.1182 12.0405 48.6402 11.6783 49.3177 11.4311C49.9996 11.1797 50.8071 11.054 51.7403 11.054C53.1594 11.054 54.278 11.348 55.0961 11.9361C55.9186 12.5241 56.3511 13.3381 56.3937 14.3778ZM66.9758 14.3778H63.7286C63.7116 14.1776 63.6412 14.005 63.5177 13.8601C63.3941 13.7152 63.2343 13.6044 63.0383 13.5277C62.8465 13.4467 62.6334 13.4062 62.3991 13.4062C62.0965 13.4062 61.8366 13.4616 61.6192 13.5724C61.4019 13.6832 61.2954 13.8409 61.2996 14.0455C61.2954 14.1903 61.3572 14.3246 61.485 14.4482C61.6171 14.5717 61.8707 14.6676 62.2457 14.7358L64.24 15.0938C65.2457 15.277 65.9935 15.5859 66.4836 16.0206C66.9779 16.451 67.2272 17.0284 67.2314 17.7528C67.2272 18.4517 67.0184 19.0589 66.605 19.5746C66.1959 20.0859 65.6356 20.4822 64.9239 20.7635C64.2165 21.0405 63.409 21.179 62.5013 21.179C61.0013 21.179 59.8273 20.8722 58.9793 20.2585C58.1356 19.6449 57.6647 18.8352 57.5667 17.8295H61.0695C61.1164 18.1406 61.2698 18.3814 61.5297 18.5518C61.7939 18.718 62.1263 18.8011 62.5269 18.8011C62.8508 18.8011 63.1171 18.7457 63.3259 18.6349C63.539 18.5241 63.6476 18.3665 63.6519 18.1619C63.6476 17.9744 63.5539 17.8253 63.3707 17.7145C63.1917 17.6037 62.9104 17.5142 62.5269 17.446L60.7883 17.1392C59.7868 16.9645 59.0368 16.6321 58.5383 16.142C58.0397 15.652 57.7925 15.0213 57.7968 14.25C57.7925 13.5682 57.9715 12.9908 58.3337 12.5178C58.7002 12.0405 59.2222 11.6783 59.8998 11.4311C60.5816 11.1797 61.3891 11.054 62.3224 11.054C63.7414 11.054 64.86 11.348 65.6782 11.9361C66.5006 12.5241 66.9332 13.3381 66.9758 14.3778Z" fill="#242424"/>
</svg>
