<svg width="272" height="181" viewBox="0 0 272 181" fill="none" xmlns="http://www.w3.org/2000/svg">
<g clip-path="url(#clip0_306_2)">
<path d="M91.8317 97.7054C101.991 97.7054 112.784 94.442 112.784 88.3886V76.9696C112.784 76.5917 112.743 76.2243 112.66 75.8677C112.499 75.1543 112.179 74.4864 111.722 73.8626C111.493 73.5499 111.231 73.2509 110.942 72.9595C110.729 72.753 110.506 72.5542 110.265 72.3553C110.172 72.2825 110.072 72.2111 109.976 72.1383C109.821 72.0214 109.671 71.9045 109.506 71.7953C109.375 71.7027 109.234 71.6192 109.094 71.5311C108.956 71.4446 108.817 71.3566 108.672 71.2701C108.504 71.1714 108.332 71.0803 108.161 70.9878C108.033 70.9225 107.907 70.8542 107.777 70.7859C107.575 70.6857 107.372 70.5901 107.162 70.4944C107.051 70.4428 106.942 70.3943 106.828 70.3442C106.594 70.241 106.355 70.1408 106.11 70.0452C106.021 70.0103 105.931 69.9769 105.839 69.9389C105.567 69.8357 105.292 69.7355 105.011 69.6369C104.949 69.6156 104.884 69.5959 104.822 69.5746C104.509 69.4714 104.196 69.3712 103.87 69.2726C101.882 68.6791 99.6838 68.2465 97.4037 67.9748C96.4899 67.8655 95.5625 67.7851 94.6291 67.7304H94.623C93.6925 67.6728 92.7575 67.6454 91.8301 67.6454H91.8271C82.9416 67.6454 73.5658 70.1454 71.3587 74.8262C71.046 75.4956 70.8775 76.2075 70.8775 76.9649V88.3838C70.8821 94.4401 81.6771 97.7049 91.8316 97.7049L91.8317 97.7054ZM109.231 88.3886C109.231 90.7382 102.458 94.1519 91.836 94.1519V86.2864C98.4052 86.2864 105.22 84.9127 109.231 82.3098V88.3886ZM74.51 76.5189C74.5555 76.3823 74.6268 76.2411 74.7134 76.1C74.7468 76.0514 74.7862 76.0013 74.8227 75.9527C74.8879 75.8601 74.9562 75.7676 75.0397 75.6719C75.0913 75.6127 75.1566 75.549 75.2143 75.4898C75.2962 75.4078 75.3797 75.3259 75.4723 75.2454C75.5512 75.1771 75.6362 75.1088 75.7258 75.039C75.8153 74.9661 75.911 74.8917 76.0111 74.8189C76.1174 74.743 76.2282 74.6671 76.3481 74.5927C76.4437 74.5305 76.5439 74.4683 76.6441 74.4045C76.7822 74.3195 76.9249 74.236 77.0767 74.1571C77.1662 74.1055 77.2649 74.0569 77.359 74.0068C77.5381 73.9142 77.7157 73.8247 77.9115 73.7351C77.9768 73.7017 78.0496 73.6729 78.121 73.6425C80.0441 72.7773 82.6653 72.0321 85.8543 71.6025C85.8649 71.5995 85.8756 71.5995 85.8877 71.5995C86.3446 71.5373 86.8121 71.4826 87.2933 71.4356C87.313 71.4325 87.3312 71.4325 87.3509 71.4295C87.8321 71.3809 88.3254 71.343 88.8278 71.3096H88.8339C89.7993 71.2474 90.798 71.2094 91.8393 71.2094C92.9351 71.2094 93.9901 71.2443 95.0055 71.3157C96.6994 71.4295 98.2583 71.6344 99.6897 71.9C99.7884 71.9198 99.8886 71.938 99.9857 71.9577C101.117 72.1778 102.156 72.4389 103.103 72.7303C103.199 72.7607 103.293 72.7895 103.386 72.8199C103.843 72.9671 104.283 73.1189 104.691 73.2768C104.699 73.2768 104.705 73.2798 104.708 73.2828C105.105 73.4377 105.47 73.5985 105.817 73.761C105.902 73.8019 105.986 73.8429 106.071 73.8839C106.408 74.0494 106.73 74.2178 107.015 74.3894C107.022 74.3954 107.032 74.4 107.042 74.4061C107.32 74.5715 107.564 74.74 107.788 74.9115C107.847 74.9571 107.904 75.0011 107.964 75.0481C108.181 75.2227 108.382 75.3957 108.545 75.5703C109.002 76.0575 109.242 76.5326 109.242 76.9758C109.242 79.3255 102.466 82.7391 91.8441 82.7391C91.0579 82.7391 90.302 82.7148 89.5628 82.6799C89.3397 82.6693 89.1241 82.6526 88.9071 82.6389C88.3773 82.6056 87.8537 82.5661 87.3482 82.516C87.1357 82.4947 86.9293 82.475 86.7259 82.4538C86.1309 82.3885 85.5511 82.3096 84.9925 82.22C84.9166 82.2094 84.8377 82.2003 84.7664 82.1866C84.1106 82.0773 83.4853 81.9574 82.8842 81.8254C82.7977 81.8056 82.7157 81.7844 82.6292 81.7662C82.1146 81.6463 81.6198 81.5188 81.1523 81.3852C81.0597 81.3579 80.9671 81.3305 80.8745 81.3032C78.3564 80.5579 76.5062 79.6108 75.4559 78.6698C75.4149 78.6318 75.377 78.5969 75.339 78.5605C75.2465 78.4709 75.1539 78.3814 75.0719 78.2918C74.9656 78.1749 74.87 78.055 74.7911 77.9412C74.7532 77.8896 74.7319 77.838 74.7015 77.7864C74.6469 77.6907 74.5983 77.5982 74.5634 77.504C74.5467 77.4585 74.5285 77.4145 74.5148 77.3705C74.4769 77.2369 74.4465 77.1018 74.4465 76.9728C74.4314 76.8225 74.4617 76.6708 74.5103 76.519L74.51 76.5189Z" fill="black"/>
<path d="M136.428 80.9035C146.584 80.9035 157.381 77.6371 157.381 71.5867V60.1678C157.381 59.7898 157.337 59.4225 157.256 59.0658C157.092 58.3525 156.772 57.6861 156.315 57.0607C156.086 56.7481 155.823 56.449 155.535 56.1576C155.325 55.9512 155.099 55.7523 154.861 55.5565C154.768 55.4837 154.668 55.4123 154.573 55.3395C154.418 55.2226 154.267 55.1057 154.102 54.9934C153.968 54.9039 153.83 54.8173 153.691 54.7293C153.554 54.6428 153.413 54.5548 153.272 54.4682C153.103 54.3696 152.935 54.2785 152.76 54.1859C152.633 54.1176 152.507 54.0493 152.379 53.984C152.177 53.8839 151.974 53.7852 151.762 53.6926C151.652 53.641 151.541 53.5894 151.429 53.5408C151.195 53.4376 150.953 53.3374 150.711 53.2418C150.622 53.2069 150.532 53.1735 150.439 53.1356C150.168 53.0323 149.893 52.9322 149.609 52.8365C149.547 52.8153 149.485 52.7925 149.421 52.7743C149.108 52.6681 148.796 52.5679 148.466 52.4723C146.478 51.8788 144.28 51.4462 142 51.1775C141.086 51.0682 140.159 50.9878 139.225 50.9332H139.219C138.292 50.8785 137.355 50.8512 136.427 50.8512H136.423C127.538 50.8512 118.164 53.3511 115.958 58.032C115.646 58.7014 115.477 59.4132 115.477 60.1706V71.5896C115.482 77.6366 126.275 80.9033 136.428 80.9033L136.428 80.9035ZM153.829 71.584C153.829 73.9337 147.056 77.3473 136.434 77.3473V69.4818C143.003 69.4818 149.818 68.1082 153.829 65.5052V71.584ZM119.111 59.7143C119.156 59.5777 119.227 59.4366 119.314 59.2954C119.347 59.2468 119.387 59.1967 119.423 59.1482C119.489 59.0556 119.557 58.963 119.639 58.8674C119.69 58.8082 119.756 58.7444 119.815 58.6822C119.897 58.6002 119.979 58.5183 120.07 58.4378C120.149 58.3695 120.235 58.3012 120.323 58.2314C120.413 58.1585 120.509 58.0872 120.609 58.0113C120.715 57.9354 120.826 57.8595 120.943 57.7851C121.038 57.7229 121.138 57.6607 121.242 57.5969C121.378 57.515 121.523 57.4315 121.671 57.3495C121.761 57.2979 121.859 57.2508 121.954 57.1992C122.133 57.1067 122.31 57.0171 122.506 56.9275C122.571 56.8942 122.644 56.8653 122.713 56.835C124.636 55.9698 127.255 55.2245 130.443 54.795C130.451 54.7919 130.464 54.7919 130.477 54.7889C130.933 54.7297 131.401 54.672 131.881 54.625C131.9 54.625 131.919 54.6219 131.938 54.6189C132.419 54.5703 132.913 54.5293 133.415 54.499H133.418C134.388 54.4428 135.387 54.4018 136.428 54.4018C137.524 54.4018 138.579 54.4398 139.591 54.5081C141.285 54.6219 142.844 54.8268 144.276 55.0925C144.374 55.1092 144.474 55.1274 144.571 55.1501C145.701 55.3702 146.742 55.6313 147.686 55.9227C147.782 55.9531 147.876 55.9819 147.968 56.0123C148.428 56.1595 148.866 56.3113 149.274 56.4692C149.281 56.4722 149.287 56.4752 149.294 56.4768C149.691 56.6316 150.052 56.7925 150.4 56.9549C150.482 56.9959 150.569 57.0369 150.654 57.0748C150.991 57.2402 151.312 57.4087 151.601 57.5803C151.608 57.5863 151.617 57.5909 151.628 57.597C151.906 57.7654 152.147 57.9339 152.373 58.1024C152.433 58.1479 152.49 58.192 152.548 58.236C152.765 58.4105 152.964 58.5866 153.129 58.7581C153.586 59.2454 153.826 59.7205 153.826 60.1637C153.826 62.5133 147.05 65.927 136.428 65.927C135.642 65.927 134.886 65.9027 134.144 65.8678C133.921 65.8602 133.705 65.8435 133.488 65.8298C132.959 65.7964 132.435 65.7539 131.929 65.7054C131.717 65.6856 131.511 65.6644 131.307 65.6431C130.712 65.5748 130.132 65.4959 129.574 65.4094C129.498 65.3957 129.419 65.3881 129.345 65.376C128.689 65.2667 128.067 65.1468 127.462 65.0117C127.376 64.992 127.294 64.9707 127.209 64.9525C126.693 64.8356 126.203 64.7081 125.735 64.5715C125.642 64.5442 125.55 64.5169 125.457 64.4926C122.939 63.7473 121.089 62.8002 120.039 61.8591C119.998 61.8212 119.957 61.7878 119.922 61.7498C119.829 61.6603 119.737 61.5738 119.655 61.4812C119.548 61.3643 119.453 61.2444 119.374 61.1306C119.336 61.079 119.315 61.0274 119.284 60.9788C119.23 60.8832 119.181 60.7891 119.146 60.6965C119.129 60.6524 119.111 60.6099 119.098 60.5659C119.057 60.4293 119.029 60.2973 119.029 60.1683C119.032 60.0195 119.06 59.8692 119.111 59.7144L119.111 59.7143Z" fill="black"/>
<path d="M181.028 64.0939C191.184 64.0939 201.981 60.8275 201.981 54.7771V43.3566C201.981 42.9787 201.937 42.6113 201.856 42.2547C201.692 41.5413 201.372 40.8749 200.915 40.2496C200.686 39.9369 200.425 39.6379 200.135 39.3465C199.926 39.14 199.699 38.9412 199.461 38.7454C199.369 38.6725 199.268 38.6012 199.173 38.5283C199.018 38.4114 198.868 38.2946 198.702 38.1822C198.569 38.0927 198.431 38.0077 198.291 37.9181C198.154 37.8316 198.013 37.7436 197.872 37.6571C197.704 37.5584 197.535 37.4673 197.361 37.3747C197.233 37.3064 197.107 37.2412 196.98 37.1729C196.778 37.0727 196.574 36.9771 196.362 36.8814C196.252 36.8298 196.142 36.7782 196.029 36.7312C195.796 36.628 195.553 36.5278 195.311 36.4322C195.222 36.3972 195.132 36.3608 195.04 36.3259C194.768 36.2227 194.493 36.1225 194.212 36.0239C194.15 36.0026 194.085 35.9829 194.023 35.9616C193.71 35.8584 193.397 35.7552 193.068 35.6596C191.08 35.0661 188.882 34.6335 186.602 34.3618C185.688 34.2525 184.761 34.1721 183.827 34.1174H183.821C182.891 34.0598 181.956 34.0324 181.028 34.0324H181.025C172.14 34.0324 162.761 36.5324 160.557 41.2132C160.244 41.8826 160.076 42.5945 160.076 43.3519V54.774C160.079 60.8271 170.869 64.0935 181.028 64.0935L181.028 64.0939ZM198.425 54.7771C198.425 57.1268 191.652 60.5404 181.03 60.5404V52.675C187.596 52.675 194.414 51.3013 198.425 48.6983V54.7771ZM163.707 42.9043C163.752 42.7677 163.823 42.6266 163.908 42.4884C163.942 42.4399 163.981 42.3898 164.018 42.3412C164.083 42.2486 164.151 42.156 164.233 42.0604C164.285 42.0012 164.35 41.9375 164.408 41.8783C164.49 41.7963 164.573 41.7128 164.666 41.6339C164.745 41.5656 164.831 41.4958 164.919 41.4275C165.009 41.3546 165.105 41.2802 165.205 41.2074C165.308 41.1315 165.422 41.0556 165.539 40.9812C165.634 40.919 165.734 40.8567 165.835 40.793C165.973 40.708 166.115 40.6245 166.267 40.5456C166.357 40.494 166.452 40.4454 166.55 40.3953C166.729 40.3027 166.909 40.2132 167.102 40.1236C167.167 40.0902 167.24 40.0614 167.308 40.031C169.232 39.1658 171.853 38.4206 175.042 37.991C175.052 37.988 175.066 37.988 175.075 37.985C175.535 37.9258 176 37.8711 176.481 37.821C176.5 37.818 176.519 37.818 176.538 37.815C177.023 37.7664 177.513 37.7284 178.018 37.695H178.024C178.987 37.6328 179.989 37.5918 181.03 37.5918C182.123 37.5918 183.181 37.6298 184.193 37.6981C185.885 37.8119 187.446 38.0168 188.877 38.2825C188.976 38.3022 189.076 38.3204 189.173 38.3401C190.302 38.5602 191.344 38.8213 192.288 39.1127C192.383 39.1431 192.478 39.1719 192.57 39.2023C193.03 39.3495 193.467 39.5013 193.876 39.6592C193.883 39.6592 193.889 39.6622 193.895 39.6652C194.293 39.8201 194.654 39.981 195.002 40.1434C195.084 40.1844 195.17 40.2253 195.255 40.2633C195.592 40.4318 195.914 40.6002 196.202 40.7718C196.21 40.7778 196.219 40.7824 196.23 40.7885C196.507 40.9539 196.749 41.1224 196.975 41.2939C197.034 41.3395 197.092 41.3835 197.15 41.4305C197.367 41.6051 197.568 41.7781 197.731 41.9527C198.191 42.4399 198.428 42.915 198.428 43.3567C198.428 45.7064 191.652 49.1231 181.03 49.1231C180.244 49.1231 179.488 49.0988 178.746 49.0639C178.523 49.0563 178.307 49.0396 178.09 49.026C177.56 48.9926 177.037 48.9531 176.531 48.903C176.322 48.8818 176.115 48.862 175.909 48.8408C175.315 48.7725 174.734 48.6936 174.175 48.607C174.103 48.5964 174.021 48.5858 173.946 48.5736C173.294 48.4644 172.668 48.3445 172.067 48.2094C171.981 48.1927 171.899 48.1684 171.812 48.1502C171.298 48.0333 170.806 47.9058 170.335 47.7722C170.243 47.7449 170.15 47.7176 170.058 47.6903C167.539 46.945 165.689 45.9978 164.639 45.0568C164.595 45.0219 164.56 44.9854 164.522 44.9475C164.429 44.8579 164.337 44.7714 164.253 44.6804C164.15 44.5635 164.055 44.4436 163.973 44.3267C163.935 44.2751 163.913 44.2235 163.883 44.1749C163.828 44.0793 163.783 43.9852 163.745 43.8926C163.725 43.8486 163.71 43.8061 163.693 43.7621C163.655 43.6285 163.628 43.4934 163.628 43.3644C163.628 43.2126 163.655 43.0623 163.707 42.9045L163.707 42.9043Z" fill="black"/>
<path d="M272.001 39.0544C272.001 39.0468 271.998 39.0377 271.998 39.0331C271.995 38.8753 271.97 38.7204 271.926 38.5702C271.913 38.5155 271.888 38.4639 271.869 38.4153C271.828 38.3121 271.787 38.2165 271.727 38.1239C271.694 38.0753 271.668 38.0253 271.629 37.9797C271.564 37.8932 271.485 37.8112 271.403 37.7384C271.362 37.7035 271.33 37.6655 271.286 37.6321C271.266 37.6185 271.252 37.5987 271.231 37.5866C271.117 37.5077 270.991 37.4424 270.864 37.3938C270.861 37.3938 270.858 37.3908 270.856 37.3908L270.853 37.3878C270.853 37.3878 270.85 37.3878 270.846 37.3847L246.575 28.094L246.577 26.5534C246.577 26.1754 246.532 25.8081 246.452 25.4514C246.288 24.738 245.968 24.0717 245.511 23.4463C245.282 23.1336 245.021 22.8346 244.731 22.5432C244.521 22.3368 244.295 22.1379 244.057 21.9421C243.964 21.8662 243.864 21.7979 243.768 21.7251C243.614 21.6082 243.463 21.4913 243.298 21.382C243.164 21.2894 243.026 21.206 242.887 21.1179C242.75 21.0284 242.609 20.9434 242.468 20.8568C242.299 20.7612 242.131 20.6686 241.956 20.5745C241.832 20.5062 241.706 20.4379 241.575 20.3727C241.373 20.2725 241.17 20.1768 240.957 20.0812C240.848 20.0296 240.74 19.981 240.625 19.931C240.391 19.8277 240.148 19.7276 239.907 19.6319C239.817 19.597 239.728 19.5636 239.635 19.5257C239.364 19.4225 239.092 19.3223 238.808 19.2236C238.746 19.2024 238.681 19.1827 238.618 19.1614C238.306 19.0552 237.993 18.955 237.664 18.8593C235.678 18.2674 233.48 17.8333 231.201 17.5631C230.287 17.4538 229.359 17.3734 228.426 17.3187H228.42C227.489 17.2641 226.554 17.2337 225.627 17.2337H225.624C223.513 17.2337 221.375 17.381 219.314 17.6588L201.549 10.8588V9.3166C201.549 8.93865 201.508 8.57132 201.426 8.21465C201.262 7.50127 200.942 6.83491 200.488 6.20954C200.259 5.89686 199.996 5.59785 199.705 5.30642C199.496 5.09999 199.269 4.90114 199.031 4.70534C198.939 4.63248 198.838 4.56115 198.743 4.48829C198.588 4.37141 198.438 4.25454 198.272 4.14222C198.139 4.05266 198.001 3.96615 197.864 3.87811C197.726 3.78856 197.586 3.70356 197.442 3.61704C197.276 3.52141 197.105 3.42882 196.93 3.33472C196.806 3.26641 196.677 3.19811 196.546 3.13284C196.351 3.03266 196.144 2.934 195.935 2.83838C195.825 2.78677 195.712 2.7382 195.601 2.68811C195.364 2.5849 195.127 2.48472 194.883 2.38909C194.793 2.35418 194.704 2.32079 194.611 2.28284C194.336 2.17963 194.065 2.07945 193.781 1.98382C193.719 1.96257 193.653 1.93981 193.591 1.92159C193.281 1.81534 192.969 1.71516 192.642 1.61954C190.651 1.02607 188.453 0.593476 186.176 0.321787C185.259 0.212501 184.329 0.132056 183.399 0.0774107H183.396C182.464 0.02732 181.53 0 180.598 0H180.595C171.71 0 162.334 2.49991 160.13 7.1808C159.817 7.84712 159.649 8.56206 159.649 9.31946V10.4153L141.753 17.1578C141.905 17.1745 142.052 17.2019 142.202 17.2201C141.996 17.1928 141.789 17.1609 141.58 17.1351C140.663 17.0258 139.733 16.9453 138.802 16.8907C137.866 16.8315 136.931 16.8042 136 16.8042C127.115 16.8042 117.741 19.3041 115.535 23.985C115.222 24.6544 115.054 25.3662 115.054 26.1236V27.2195L97.1582 33.962C97.2098 33.9681 97.2614 33.9787 97.3161 33.9833C97.2053 33.9696 97.096 33.9499 96.9837 33.9377C96.0669 33.8284 95.1395 33.748 94.206 33.6933H94.203C93.2695 33.6387 92.3345 33.6114 91.4071 33.6114H91.404C82.5186 33.6114 73.1427 36.1113 70.9357 40.7922C70.623 41.4616 70.4515 42.1734 70.4515 42.9308V44.0267L52.5558 50.7692C52.6833 50.7859 52.8108 50.8072 52.9398 50.8239C52.7546 50.7996 52.5695 50.7692 52.3828 50.748C51.466 50.6387 50.5386 50.5582 49.6051 50.5036H49.6021C48.6686 50.449 47.7336 50.4186 46.8062 50.4186H46.8031C37.9177 50.4186 28.5418 52.9185 26.3378 57.5994C26.0221 58.2688 25.8536 58.9807 25.8536 59.7381V60.8339L1.1475 70.1414C1.14143 70.1444 1.13687 70.149 1.1308 70.149C1.0033 70.1976 0.880356 70.2598 0.766517 70.3387C0.74982 70.3493 0.736159 70.3691 0.72098 70.3797C0.675443 70.4146 0.63598 70.4526 0.596516 70.4905C0.514551 70.5618 0.441694 70.6377 0.376426 70.7212C0.338479 70.7698 0.305088 70.8168 0.273213 70.8685C0.215534 70.961 0.170001 71.0567 0.132053 71.1568C0.112321 71.2085 0.0880357 71.2555 0.0743735 71.3086C0.0303562 71.4589 0.00303571 71.6137 0.00303571 71.7731C0.00303571 71.7837 0 71.7883 0 71.7974V71.8004V144.836C0 145.574 0.453852 146.231 1.13991 146.492L91.1914 180.963C91.205 180.969 91.2247 180.966 91.2399 180.97C91.4281 181.039 91.6255 181.08 91.8243 181.08C92.0231 181.08 92.2159 181.039 92.4041 180.976C92.4178 180.97 92.4375 180.973 92.4497 180.966L270.843 113.747C271.533 113.486 271.993 112.826 271.993 112.088L271.995 39.0637C271.998 39.0606 271.998 39.0591 271.998 39.0561L272.001 39.0544ZM219.676 21.1816C220.136 21.1224 220.603 21.0648 221.081 21.0177C221.101 21.0147 221.119 21.0147 221.139 21.0116C221.623 20.9631 222.113 20.9221 222.619 20.8917H222.625C223.59 20.8295 224.589 20.7915 225.63 20.7915C226.726 20.7915 227.781 20.8265 228.793 20.8978C230.487 21.0116 232.046 21.2165 233.478 21.4822C233.576 21.5019 233.676 21.5201 233.774 21.5398C234.903 21.7599 235.944 22.021 236.891 22.3124C236.984 22.3428 237.079 22.3716 237.174 22.402C237.633 22.5492 238.074 22.701 238.479 22.8589C238.487 22.8619 238.493 22.8649 238.499 22.8649C238.896 23.0198 239.258 23.1807 239.605 23.3431C239.687 23.3841 239.774 23.422 239.859 23.463C240.196 23.6284 240.517 23.7969 240.806 23.9685C240.813 23.9745 240.823 23.9791 240.833 23.9851C241.111 24.1506 241.352 24.3221 241.578 24.4906C241.638 24.5361 241.695 24.5802 241.753 24.6242C241.97 24.7987 242.172 24.9718 242.334 25.1463C242.794 25.6336 243.031 26.1087 243.031 26.5519C243.031 28.9015 236.255 32.3152 225.634 32.3152C224.847 32.3152 224.091 32.2909 223.349 32.256C223.126 32.2453 222.911 32.2286 222.693 32.215C222.164 32.1816 221.64 32.1421 221.135 32.092C220.925 32.0723 220.719 32.0511 220.512 32.0298C219.917 31.9645 219.334 31.8856 218.777 31.7961C218.705 31.7854 218.623 31.7763 218.551 31.7627C217.896 31.6534 217.27 31.532 216.669 31.3984C216.583 31.3786 216.501 31.3574 216.414 31.3392C215.9 31.2193 215.408 31.0948 214.937 30.9582C214.845 30.9309 214.752 30.9036 214.659 30.8762C212.141 30.131 210.291 29.1838 209.241 28.2428C209.197 28.2048 209.162 28.1699 209.124 28.1335C209.031 28.0439 208.939 27.9544 208.855 27.8648C208.752 27.748 208.656 27.628 208.574 27.5142C208.54 27.4626 208.515 27.411 208.485 27.3624C208.43 27.2668 208.385 27.1727 208.347 27.0801C208.327 27.0361 208.312 26.9905 208.295 26.9465C208.257 26.813 208.23 26.6794 208.23 26.5489C208.23 26.4016 208.257 26.2529 208.306 26.098C208.354 25.9614 208.423 25.8203 208.509 25.6791C208.543 25.6305 208.581 25.5805 208.615 25.5319C208.681 25.4393 208.749 25.3467 208.831 25.2511C208.883 25.1919 208.948 25.1281 209.007 25.0689C209.086 24.987 209.171 24.905 209.262 24.8246C209.341 24.7563 209.427 24.688 209.516 24.6181C209.605 24.5453 209.701 24.4739 209.801 24.398C209.904 24.3222 210.018 24.2463 210.135 24.1719C210.23 24.1096 210.331 24.0474 210.434 23.9837C210.57 23.8987 210.715 23.8182 210.863 23.7363C210.953 23.6846 211.052 23.6361 211.146 23.586C211.325 23.4934 211.505 23.4038 211.698 23.3143C211.763 23.2809 211.836 23.2521 211.905 23.2217C213.828 22.3565 216.449 21.6113 219.638 21.1817H219.676L219.676 21.1816ZM243.026 31.8914V37.9734C243.026 40.323 236.254 43.7366 225.632 43.7366V35.8712C232.198 35.8681 239.016 34.4945 243.026 31.8914ZM163.28 8.86392C163.325 8.72731 163.397 8.58615 163.482 8.445C163.515 8.39642 163.555 8.34634 163.591 8.29776C163.656 8.20517 163.722 8.11258 163.807 8.01696C163.858 7.95776 163.923 7.89401 163.981 7.83481C164.063 7.75285 164.147 7.67089 164.239 7.59044C164.315 7.52214 164.405 7.45383 164.493 7.38401C164.582 7.31115 164.678 7.23981 164.778 7.16392C164.881 7.08803 164.995 7.01213 165.112 6.93776C165.208 6.87552 165.308 6.8133 165.408 6.74954C165.546 6.66454 165.689 6.5841 165.838 6.50213C165.927 6.45053 166.026 6.40195 166.12 6.35186C166.296 6.25927 166.48 6.16972 166.669 6.08017C166.735 6.04677 166.81 6.01793 166.879 5.98758C168.802 5.12238 171.423 4.37714 174.612 3.94758C174.623 3.94758 174.633 3.94454 174.646 3.94454C175.102 3.88535 175.57 3.82767 176.051 3.78061C176.071 3.77758 176.089 3.77758 176.109 3.77454C176.59 3.72597 177.083 3.68498 177.586 3.65463H177.592C178.557 3.5924 179.559 3.55445 180.597 3.55445C181.693 3.55445 182.748 3.58936 183.763 3.6607C185.456 3.77454 187.016 3.97945 188.448 4.24508C188.548 4.26481 188.646 4.28302 188.742 4.30275C189.873 4.52285 190.916 4.78392 191.86 5.07535C191.955 5.10571 192.049 5.13455 192.145 5.16491C192.602 5.31214 193.042 5.46392 193.45 5.62179C193.456 5.62482 193.461 5.62786 193.467 5.62938C193.865 5.7842 194.226 5.94509 194.574 6.10751C194.659 6.1485 194.742 6.18644 194.827 6.22742C195.164 6.39287 195.487 6.56135 195.774 6.73288C195.782 6.73895 195.791 6.7435 195.799 6.74957C196.079 6.91502 196.321 7.08654 196.547 7.25503C196.605 7.30056 196.667 7.34458 196.721 7.3886C196.938 7.56315 197.14 7.73922 197.306 7.91076C197.76 8.39799 198.002 8.8731 198.002 9.3163C198.002 11.666 191.224 15.0796 180.603 15.0796C179.82 15.0796 179.064 15.0553 178.322 15.0204C178.099 15.0128 177.883 14.9961 177.666 14.9794C177.137 14.946 176.613 14.9066 176.108 14.8565C175.898 14.8367 175.692 14.8155 175.485 14.7942C174.89 14.7259 174.31 14.647 173.752 14.5605C173.676 14.5468 173.597 14.5392 173.523 14.5271C172.867 14.4178 172.242 14.2979 171.644 14.1628C171.557 14.1431 171.475 14.1218 171.389 14.1036C170.874 13.9837 170.379 13.8592 169.912 13.7226C169.819 13.6953 169.726 13.668 169.631 13.6437C167.113 12.8984 165.266 11.9513 164.215 11.0102C164.171 10.9723 164.133 10.9389 164.098 10.901C164.005 10.8114 163.913 10.7218 163.829 10.6323C163.723 10.5154 163.631 10.3955 163.549 10.2817C163.511 10.2301 163.489 10.1785 163.459 10.1299C163.404 10.0343 163.356 9.94015 163.318 9.84756C163.301 9.80354 163.284 9.76104 163.269 9.71703C163.228 9.58042 163.201 9.44836 163.201 9.31936C163.201 9.16909 163.228 9.02034 163.28 8.864V8.86392ZM198.004 14.656V20.7379C198.004 23.0875 191.228 26.5012 180.606 26.5012V18.6342C187.172 18.6311 193.992 17.2574 198.004 14.656V14.656ZM118.685 25.6712C118.73 25.5346 118.802 25.3934 118.888 25.2523C118.918 25.2037 118.961 25.1536 118.997 25.105C119.063 25.0124 119.128 24.9199 119.213 24.8242C119.265 24.765 119.33 24.7013 119.388 24.6421C119.469 24.5601 119.553 24.4766 119.646 24.3977C119.724 24.3294 119.809 24.2611 119.899 24.1913C119.989 24.1184 120.084 24.044 120.184 23.9712C120.291 23.8953 120.401 23.8194 120.521 23.745C120.617 23.6828 120.717 23.6206 120.817 23.5568C120.955 23.4718 121.098 23.3883 121.25 23.3094C121.339 23.2578 121.438 23.2092 121.532 23.1591C121.711 23.0665 121.892 22.977 122.085 22.8874C122.15 22.854 122.223 22.8252 122.294 22.7949C124.217 21.9297 126.837 21.1844 130.025 20.7549C130.035 20.7518 130.046 20.7518 130.058 20.7488C130.515 20.6896 130.983 20.6349 131.464 20.5848C131.484 20.5818 131.502 20.5818 131.521 20.5788C132.003 20.5302 132.496 20.4923 132.998 20.4589H133.004C133.964 20.3966 134.959 20.3572 136.004 20.3572C137.1 20.3572 138.155 20.3951 139.167 20.4634C140.861 20.5773 142.423 20.7822 143.851 21.0478C143.951 21.0675 144.05 21.0857 144.146 21.1055C145.276 21.3256 146.319 21.5897 147.263 21.8781C147.359 21.9084 147.453 21.9373 147.549 21.9676C148.006 22.1149 148.446 22.2666 148.854 22.4245C148.86 22.4245 148.865 22.4275 148.871 22.4306C149.268 22.5854 149.63 22.7463 149.977 22.9087C150.062 22.9497 150.146 22.9907 150.231 23.0317C150.568 23.1971 150.889 23.3656 151.178 23.5371C151.185 23.5432 151.195 23.5477 151.202 23.5538C151.48 23.7193 151.724 23.8877 151.947 24.0593C152.007 24.1048 152.07 24.1488 152.123 24.1959C152.341 24.3704 152.542 24.5435 152.708 24.718C153.162 25.2053 153.405 25.6804 153.405 26.1236C153.405 28.4732 146.626 31.8869 136.006 31.8869C135.219 31.8869 134.463 31.8626 133.724 31.8277C133.501 31.817 133.286 31.8004 133.068 31.7867C132.539 31.7533 132.015 31.7138 131.51 31.6637C131.3 31.6425 131.094 31.6228 130.887 31.6015C130.292 31.5332 129.712 31.4573 129.154 31.3678C129.078 31.3571 128.999 31.348 128.928 31.3344C128.272 31.2251 127.647 31.1052 127.046 30.9731C126.959 30.9534 126.877 30.9321 126.791 30.9139C126.276 30.794 125.784 30.6665 125.317 30.5329C125.224 30.5056 125.132 30.4783 125.039 30.451C122.521 29.7057 120.671 28.7585 119.62 27.8175C119.576 27.7796 119.538 27.7446 119.503 27.7082C119.411 27.6187 119.318 27.5291 119.236 27.4396C119.13 27.3227 119.034 27.2028 118.956 27.0889C118.921 27.0373 118.896 26.9857 118.866 26.9341C118.811 26.8385 118.763 26.7459 118.728 26.6518C118.711 26.6063 118.693 26.5622 118.679 26.5182C118.641 26.3847 118.611 26.2496 118.611 26.1206C118.606 25.9764 118.634 25.8261 118.685 25.6713L118.685 25.6712ZM153.403 31.4601V37.542C153.403 39.8917 146.627 43.3053 136.005 43.3053V35.4399C142.574 35.4353 149.394 34.0616 153.403 31.4601ZM74.0876 42.4753C74.1331 42.3387 74.2045 42.1976 74.291 42.0564C74.3244 42.0079 74.3639 41.9578 74.4003 41.9092C74.4656 41.8166 74.5308 41.724 74.6158 41.6284C74.6674 41.5692 74.7327 41.5054 74.7919 41.4462C74.8739 41.3643 74.9558 41.2808 75.0469 41.1988C75.1258 41.1305 75.2123 41.0622 75.3004 40.9954C75.3899 40.9226 75.4856 40.8482 75.5857 40.7754C75.692 40.6995 75.8028 40.6236 75.9197 40.5462C76.0153 40.4839 76.1155 40.4217 76.2187 40.3579C76.3553 40.276 76.4995 40.1925 76.6482 40.1105C76.7378 40.062 76.8365 40.0119 76.9306 39.9603C77.1066 39.8677 77.2873 39.7781 77.48 39.6886C77.5453 39.6552 77.6212 39.6263 77.6895 39.596C79.6126 38.7308 82.2339 37.9855 85.4229 37.556C85.4304 37.5529 85.4441 37.5529 85.4562 37.5499C85.9131 37.4907 86.3806 37.433 86.8618 37.386C86.8815 37.3829 86.8967 37.3829 86.9195 37.3799C87.4006 37.3313 87.8939 37.2903 88.3964 37.26H88.3994C89.3648 37.1978 90.3665 37.1568 91.4078 37.1568C92.5037 37.1568 93.5586 37.1947 94.571 37.263C96.2649 37.3769 97.8268 37.5818 99.2552 37.8474C99.3554 37.8671 99.4541 37.8823 99.5512 37.9051C100.682 38.1252 101.722 38.3862 102.666 38.6777C102.761 38.708 102.856 38.7369 102.951 38.7672C103.408 38.9145 103.848 39.0632 104.257 39.2241C104.263 39.2271 104.264 39.2302 104.273 39.2317C104.668 39.3865 105.032 39.5474 105.38 39.7098C105.465 39.7508 105.548 39.7918 105.63 39.8297C105.97 39.9952 106.291 40.1667 106.577 40.3382C106.585 40.3443 106.594 40.3489 106.602 40.3549C106.879 40.5234 107.121 40.6919 107.347 40.8604C107.406 40.9059 107.467 40.9499 107.523 40.994C107.74 41.1685 107.942 41.3446 108.107 41.5191C108.561 42.0033 108.801 42.4815 108.801 42.9232C108.801 45.2728 102.022 48.6865 91.4036 48.6865C90.6173 48.6865 89.8614 48.6622 89.1222 48.6273C88.8991 48.6197 88.6836 48.603 88.4665 48.5893C87.9368 48.5559 87.4131 48.5165 86.9077 48.4664C86.6982 48.4451 86.4887 48.4254 86.2853 48.4041C85.6919 48.3358 85.1105 48.2569 84.552 48.1704C84.4761 48.1598 84.3971 48.1491 84.3228 48.137C83.667 48.0277 83.0447 47.9078 82.4437 47.7727C82.3541 47.753 82.2752 47.7317 82.1887 47.7135C81.6726 47.5966 81.1793 47.4691 80.7118 47.3356C80.6192 47.3083 80.5266 47.2809 80.434 47.2536C77.9159 46.5083 76.0688 45.5612 75.0154 44.6201C74.9744 44.5822 74.9334 44.5488 74.8985 44.5109C74.8059 44.4213 74.7133 44.3348 74.6314 44.2422C74.5251 44.1253 74.4295 44.0084 74.3506 43.8916C74.3126 43.84 74.2914 43.7884 74.261 43.7398C74.2064 43.6442 74.1578 43.5501 74.1199 43.4575C74.1032 43.4134 74.0865 43.3709 74.0713 43.3269C74.0303 43.1903 74.003 43.0583 74.003 42.9293C74.0091 42.7835 74.0364 42.6302 74.088 42.4754L74.0876 42.4753ZM108.808 48.2658V54.345C108.808 56.6947 102.032 60.1083 91.4109 60.1083V52.2429C97.9832 52.2429 104.798 50.8692 108.808 48.2662V48.2658ZM29.4854 59.2826C29.531 59.146 29.6023 59.0049 29.6888 58.8637C29.7192 58.8151 29.7617 58.765 29.7981 58.7165C29.8634 58.6239 29.9317 58.5313 30.0136 58.4357C30.0683 58.3765 30.1305 58.3127 30.1897 58.2535C30.2717 58.1715 30.3552 58.0896 30.4477 58.0091C30.5236 57.9408 30.6117 57.8725 30.6982 57.8027C30.7908 57.7298 30.8834 57.6585 30.9866 57.5826C31.0928 57.5067 31.2036 57.4308 31.3205 57.3565C31.4161 57.2942 31.5194 57.232 31.6195 57.1682C31.7561 57.0832 31.9003 57.0028 32.0491 56.9208C32.1417 56.8692 32.2373 56.8207 32.3314 56.7706C32.5075 56.678 32.6881 56.5884 32.8809 56.4989C32.9462 56.4655 33.019 56.4366 33.0904 56.4063C35.0135 55.5411 37.6332 54.7958 40.8237 54.3663C40.8343 54.3632 40.845 54.3632 40.8571 54.3632C41.314 54.304 41.7815 54.2464 42.2626 54.1993C42.2824 54.1963 42.2976 54.1963 42.3203 54.1932C42.8015 54.1447 43.2948 54.1067 43.7972 54.0733H43.8033C44.7686 54.0111 45.7674 53.9732 46.8087 53.9732C47.9045 53.9732 48.9595 54.0081 49.9749 54.0794C51.6688 54.1932 53.2277 54.3982 54.6591 54.6638C54.7593 54.6835 54.858 54.7017 54.9551 54.7215C56.0859 54.9415 57.1256 55.2026 58.0728 55.4941C58.1684 55.5244 58.2625 55.5533 58.3581 55.5836C58.815 55.7308 59.2582 55.8826 59.6635 56.0405C59.6696 56.0435 59.6741 56.0435 59.6802 56.0466C60.0748 56.2014 60.4391 56.3623 60.7867 56.5247C60.8732 56.5657 60.9552 56.6036 61.0402 56.6446C61.3772 56.8101 61.7005 56.9785 61.9873 57.1501C61.9934 57.1561 62.001 57.1607 62.0116 57.1668C62.2894 57.3322 62.5338 57.5007 62.7569 57.6722C62.8161 57.7178 62.8768 57.7618 62.933 57.8088C63.15 57.9834 63.3549 58.1564 63.5174 58.331C63.9712 58.8182 64.2141 59.2933 64.2141 59.7365C64.2141 62.0862 57.4354 65.4998 46.815 65.4998C46.0288 65.4998 45.2728 65.4755 44.5337 65.4406C44.3105 65.43 44.095 65.4133 43.8779 65.3996C43.3482 65.3662 42.8246 65.3268 42.3191 65.2767C42.1066 65.257 41.9002 65.2357 41.6968 65.2144C41.1018 65.1492 40.522 65.0703 39.9634 64.9807C39.8875 64.9701 39.8086 64.961 39.7372 64.9473C39.0815 64.838 38.4561 64.7166 37.8551 64.583C37.7685 64.5633 37.6866 64.542 37.6001 64.5238C37.084 64.4039 36.5907 64.2795 36.1232 64.1429C36.0306 64.1155 35.938 64.0882 35.8454 64.0609C33.3273 63.3156 31.4771 62.3685 30.4268 61.4274C30.3858 61.3895 30.3479 61.3546 30.313 61.3181C30.2173 61.2286 30.1247 61.139 30.0458 61.0495C29.9396 60.9326 29.8439 60.8127 29.765 60.6988C29.7301 60.6472 29.7058 60.5956 29.6754 60.5471C29.6208 60.4514 29.5722 60.3573 29.5373 60.2647C29.5176 60.2207 29.5024 60.1782 29.4888 60.1312C29.4478 59.9976 29.4204 59.8625 29.4204 59.7335C29.4098 59.5878 29.4371 59.4375 29.4857 59.2827L29.4854 59.2826ZM64.2093 65.0704V71.1523C64.2093 73.502 57.4334 76.9156 46.8118 76.9156V69.0501C53.381 69.0471 60.1977 67.6765 64.2093 65.0704ZM46.8072 80.4691C56.9664 80.4691 67.7597 77.2057 67.7597 71.1523V59.7334C67.7597 59.3554 67.7187 58.9881 67.6368 58.6314C67.4713 57.918 67.1526 57.2517 66.6957 56.6263C66.4695 56.3136 66.2054 56.0146 65.9125 55.7232C65.703 55.5168 65.4769 55.3179 65.2355 55.1191C65.146 55.0462 65.0427 54.9749 64.9471 54.902C64.7923 54.7851 64.6405 54.6683 64.4766 54.559C64.3461 54.4664 64.2049 54.3829 64.0683 54.2949C63.9302 54.2053 63.7905 54.1203 63.6463 54.0338C63.4809 53.9351 63.3063 53.8441 63.1348 53.7515C63.0104 53.6862 62.8813 53.6179 62.7508 53.5496C62.552 53.4494 62.3486 53.3538 62.1391 53.2582C62.0283 53.2066 61.916 53.158 61.8052 53.1079C61.5714 53.0047 61.3316 52.9045 61.0872 52.8089C60.9977 52.774 60.9081 52.7406 60.8155 52.7026C60.5438 52.5994 60.2691 52.4993 59.9883 52.4006C59.9261 52.3793 59.8608 52.3596 59.7986 52.3384C59.5587 52.2594 59.3144 52.1805 59.067 52.1076L70.4525 47.8182V54.3435C70.4525 60.3951 81.2474 63.6603 91.405 63.6603C101.561 63.6603 112.358 60.3939 112.358 54.3435V42.9245C112.358 42.5466 112.314 42.1793 112.235 41.8226C112.069 41.1092 111.75 40.4428 111.294 39.8175C111.067 39.5048 110.803 39.2058 110.51 38.9144C110.304 38.7079 110.075 38.5091 109.836 38.3133C109.747 38.2404 109.644 38.1691 109.548 38.0962C109.393 37.9794 109.241 37.8625 109.078 37.7502C108.944 37.6606 108.806 37.5741 108.669 37.486C108.531 37.3995 108.391 37.3115 108.244 37.225C108.08 37.1263 107.907 37.0352 107.733 36.9427C107.608 36.8744 107.479 36.8091 107.352 36.7408C107.153 36.6406 106.949 36.545 106.74 36.4494C106.629 36.3977 106.517 36.3461 106.406 36.2976C106.172 36.1944 105.932 36.0942 105.688 35.9985C105.599 35.9636 105.506 35.9272 105.416 35.8923C105.145 35.7891 104.87 35.6889 104.589 35.5933C104.527 35.572 104.465 35.5493 104.399 35.531C104.16 35.4521 103.915 35.3732 103.668 35.3003L115.053 31.0078V37.5362C115.053 43.5847 125.848 46.853 136 46.853C146.159 46.853 156.952 43.5865 156.952 37.5362L156.951 26.1234C156.951 25.7455 156.91 25.3782 156.828 25.0184C156.662 24.305 156.344 23.6387 155.887 23.0164C155.661 22.7037 155.396 22.4047 155.107 22.1133C154.897 21.9068 154.671 21.708 154.43 21.5122C154.34 21.4393 154.24 21.368 154.144 21.2951C153.989 21.1783 153.839 21.0614 153.674 20.9491C153.54 20.8595 153.402 20.7745 153.265 20.685C153.124 20.5984 152.988 20.5104 152.843 20.4239C152.678 20.3252 152.503 20.2342 152.332 20.1416C152.207 20.0763 152.078 20.008 151.948 19.9397C151.752 19.8395 151.546 19.7439 151.336 19.6483C151.227 19.5967 151.113 19.5481 151.002 19.498C150.765 19.3948 150.529 19.2946 150.284 19.199C150.195 19.1641 150.105 19.1276 150.013 19.0927C149.738 18.9895 149.466 18.8893 149.182 18.7907C149.12 18.7694 149.055 18.7497 148.993 18.7284C148.756 18.6495 148.508 18.5706 148.264 18.4977L159.65 14.2083V20.7336C159.65 26.7852 170.443 30.0503 180.596 30.0503C190.755 30.0503 201.548 26.7839 201.548 20.7336V14.6637L212.988 19.0398C209.213 20.2495 206.275 22.0542 205.161 24.4145C204.848 25.0839 204.679 25.7958 204.679 26.5532V37.9721C204.679 44.0237 215.474 47.2889 225.629 47.2889C235.785 47.2889 246.581 44.0225 246.581 37.9721V31.8976L265.224 39.0345L91.8395 104.373L8.8134 72.5919L6.77946 71.8132L25.8575 64.6247V71.1499C25.8575 77.2047 36.6524 80.4694 46.807 80.4694L46.8072 80.4691ZM268.452 110.857L93.6106 176.739V107.503L268.452 41.6209V110.857Z" fill="black"/>
</g>
<defs>
<clipPath id="clip0_306_2">
<rect width="272" height="181" fill="white"/>
</clipPath>
</defs>
</svg>
